<svg xmlns="http://www.w3.org/2000/svg" width="764" height="675" viewBox="0 0 764 675"><defs><linearGradient id="a" x1="14.648%" x2="85.355%" y1="14.645%" y2="85.352%"><stop offset="0%" stop-color="#EA971D"/><stop offset="100%" stop-color="#DC6734"/></linearGradient><linearGradient id="b" x1="50%" x2="50%" y1="100%" y2="0%"><stop offset="0%" stop-color="#B5A8AE"/><stop offset="100%" stop-color="#93778B"/></linearGradient><linearGradient id="c" x1="38.003%" x2="95.621%" y1="33.896%" y2="105.438%"><stop offset="0%" stop-color="#F2D265"/><stop offset="100%" stop-color="#DCBB60"/></linearGradient><linearGradient id="d" x1="39.858%" x2="72.074%" y1="32.596%" y2="70.938%"><stop offset="0%" stop-color="#EA971D"/><stop offset="100%" stop-color="#E9AA4A"/></linearGradient><linearGradient id="e" x1="31.261%" x2="95.783%" y1="27.382%" y2="105.079%"><stop offset="0%" stop-color="#AE2E41"/><stop offset="100%" stop-color="#DC6734"/></linearGradient><linearGradient id="f" x1="41.855%" x2="72.618%" y1="42.424%" y2="70.404%"><stop offset="0%" stop-color="#DC6734"/><stop offset="100%" stop-color="#EA971D"/></linearGradient><linearGradient id="g" x1="23.78%" x2="71.986%" y1="18.064%" y2="71.806%"><stop offset="0%" stop-color="#DC6734"/><stop offset="100%" stop-color="#EA971D"/></linearGradient><linearGradient id="h" x1="36.518%" x2="70.455%" y1="33.498%" y2="72.743%"><stop offset="0%" stop-color="#DC6734"/><stop offset="100%" stop-color="#EA971D"/></linearGradient><linearGradient id="i" x1="0%" x2="100%" y1="50.001%" y2="50.001%"><stop offset="0%" stop-color="#B5A8AE"/><stop offset="31.73%" stop-color="#B3A5AC"/><stop offset="57.83%" stop-color="#AC9BA4"/><stop offset="81.86%" stop-color="#A08998"/><stop offset="100%" stop-color="#93778B"/></linearGradient><linearGradient id="j" x1="23.843%" x2="80.867%" y1="-67.364%" y2="147.433%"><stop offset="0%" stop-color="#E9AA4A"/><stop offset="100%" stop-color="#EA971D"/></linearGradient><linearGradient id="k" x1="21.642%" x2="84.706%" y1="-30.628%" y2="92.986%"><stop offset="0%" stop-color="#F2D265"/><stop offset="100%" stop-color="#DCBB60"/></linearGradient><linearGradient id="l" x1="50%" x2="50%" y1="99.999%" y2="-.001%"><stop offset="0%" stop-color="#B39057"/><stop offset="100%" stop-color="#DCBB60"/></linearGradient><linearGradient id="m" x1="-19.02%" x2="98.87%" y1="12.442%" y2="89.552%"><stop offset="0%" stop-color="#EA971D"/><stop offset="100%" stop-color="#BE4118"/></linearGradient><linearGradient id="n" x1="13.506%" x2="101.19%" y1="19.367%" y2="80.921%"><stop offset="0%" stop-color="#DC6734"/><stop offset="100%" stop-color="#AE2E41"/></linearGradient><linearGradient id="o" x1=".003%" x2="100.001%" y1="50%" y2="50%"><stop offset="0%" stop-color="#5B252C"/><stop offset="17.05%" stop-color="#572433"/><stop offset="41.42%" stop-color="#4C2346"/><stop offset="70.18%" stop-color="#3B2064"/><stop offset="100%" stop-color="#241C8C"/></linearGradient><linearGradient id="p" x1="0%" x2="100.001%" y1="50%" y2="50%"><stop offset="0%" stop-color="#241C8C"/><stop offset="29.82%" stop-color="#3B2064"/><stop offset="58.58%" stop-color="#4C2346"/><stop offset="82.95%" stop-color="#572433"/><stop offset="100%" stop-color="#5B252C"/></linearGradient><linearGradient id="q" x1="-.373%" x2="100.832%" y1="42.743%" y2="58.547%"><stop offset="0%" stop-color="#5B252C"/><stop offset="17.05%" stop-color="#572433"/><stop offset="41.42%" stop-color="#4C2346"/><stop offset="70.18%" stop-color="#3B2064"/><stop offset="100%" stop-color="#241C8C"/></linearGradient><linearGradient id="r" x1="-.006%" x2="100%" y1="50%" y2="50%"><stop offset="0%" stop-color="#241C8C"/><stop offset="29.82%" stop-color="#3B2064"/><stop offset="58.58%" stop-color="#4C2346"/><stop offset="82.95%" stop-color="#572433"/><stop offset="100%" stop-color="#5B252C"/></linearGradient><linearGradient id="s" x1="50.008%" x2="50.008%" y1="100.006%" y2=".002%"><stop offset="0%" stop-color="#5B252C"/><stop offset="11.71%" stop-color="#5B2733"/><stop offset="28.45%" stop-color="#5B2E46"/><stop offset="48.21%" stop-color="#5B3964"/><stop offset="70.28%" stop-color="#5C4890"/><stop offset="94%" stop-color="#5C5BC6"/><stop offset="100%" stop-color="#5C60D5"/></linearGradient><linearGradient id="t" x1="50.002%" x2="50.002%" y1="99.999%" y2="-.002%"><stop offset="0%" stop-color="#DC6734"/><stop offset="100%" stop-color="#EA971D"/></linearGradient><linearGradient id="u" x1="-.001%" x2="99.999%" y1="50%" y2="50%"><stop offset="0%" stop-color="#EAAEA4"/><stop offset="31.26%" stop-color="#E8A89D"/><stop offset="78.25%" stop-color="#E39688"/><stop offset="100%" stop-color="#E08C7C"/></linearGradient><linearGradient id="v" x1="9.442%" x2="103.777%" y1="23.853%" y2="91.565%"><stop offset="0%" stop-color="#2421A2"/><stop offset="100%" stop-color="#250F50"/></linearGradient><linearGradient id="w" x1=".002%" x2="100.003%" y1="50%" y2="50%"><stop offset="0%" stop-color="#5C60D5"/><stop offset="100%" stop-color="#2421A2"/></linearGradient><linearGradient id="x" x1="-.001%" x2="99.998%" y1="50%" y2="50%"><stop offset="0%" stop-color="#5C60D5"/><stop offset="100%" stop-color="#2421A2"/></linearGradient><linearGradient id="y" x1="23.228%" x2="92.638%" y1="29.077%" y2="93.129%"><stop offset="0%" stop-color="#2421A2"/><stop offset="100%" stop-color="#250F50"/></linearGradient><linearGradient id="z" x1=".003%" x2="100%" y1="49.999%" y2="49.999%"><stop offset="0%" stop-color="#5C60D5"/><stop offset="100%" stop-color="#2421A2"/></linearGradient><linearGradient id="A" x1=".003%" x2="100%" y1="49.999%" y2="49.999%"><stop offset="0%" stop-color="#AE2E41"/><stop offset="100%" stop-color="#DC6734"/></linearGradient><linearGradient id="B" x1="10.615%" x2="83.809%" y1="19.595%" y2="101.619%"><stop offset="0%" stop-color="#F2D265"/><stop offset="100%" stop-color="#EA971D"/></linearGradient><linearGradient id="C" x1=".003%" x2="100.001%" y1="50%" y2="50%"><stop offset="0%" stop-color="#FCC3BB"/><stop offset="45.88%" stop-color="#F6BCB4"/><stop offset="100%" stop-color="#EAAEA4"/></linearGradient><linearGradient id="D" x1=".001%" x2="100%" y1="50.001%" y2="50.001%"><stop offset="0%" stop-color="#5C60D5"/><stop offset="100%" stop-color="#2421A2"/></linearGradient><linearGradient id="E" x1="31.122%" x2="83.799%" y1="18.225%" y2="71.043%"><stop offset="0%" stop-color="#2421A2"/><stop offset="100%" stop-color="#250F50"/></linearGradient><linearGradient id="F" x1="27.205%" x2="75.58%" y1="-8.414%" y2="77.767%"><stop offset="0%" stop-color="#F2D265"/><stop offset="100%" stop-color="#EA971D"/></linearGradient><linearGradient id="G" x1="-.002%" x2="100%" y1="49.998%" y2="49.998%"><stop offset="0%" stop-color="#895E68"/><stop offset="32.9%" stop-color="#76474F"/><stop offset="74.85%" stop-color="#622E36"/><stop offset="100%" stop-color="#5B252C"/></linearGradient><linearGradient id="H" x1="11.138%" x2="88.867%" y1="11.137%" y2="88.866%"><stop offset="0%" stop-color="#AE2E41"/><stop offset="100%" stop-color="#DC6734"/></linearGradient><linearGradient id="I" x1="21.417%" x2="78.911%" y1="57.198%" y2="42.721%"><stop offset="0%" stop-color="#5C60D5"/><stop offset="100%" stop-color="#2421A2"/></linearGradient><linearGradient id="J" x1=".354%" x2="106.327%" y1="60.257%" y2="38.365%"><stop offset="0%" stop-color="#5C60D5"/><stop offset="100%" stop-color="#2421A2"/></linearGradient><linearGradient id="K" x1=".001%" x2="100%" y1="50%" y2="50%"><stop offset="0%" stop-color="#AE2E41"/><stop offset="100%" stop-color="#DC6734"/></linearGradient><linearGradient id="L" x1="50%" x2="50%" y1="99.999%" y2=".001%"><stop offset="0%" stop-color="#DC6734"/><stop offset="100%" stop-color="#EA971D"/></linearGradient><linearGradient id="M" x1="-.001%" x2="100%" y1="49.998%" y2="49.998%"><stop offset="0%" stop-color="#895E68"/><stop offset="100%" stop-color="#5B252C"/></linearGradient><linearGradient id="N" x1="0%" x2="99.999%" y1="49.999%" y2="49.999%"><stop offset="0%" stop-color="#DCBB60"/><stop offset="100%" stop-color="#B39057"/></linearGradient><linearGradient id="O" x1="50%" x2="50%" y1="100%" y2=".001%"><stop offset="0%" stop-color="#B5A8AE"/><stop offset="3.76%" stop-color="#B3A5AC"/><stop offset="40.26%" stop-color="#A18C9A"/><stop offset="73.41%" stop-color="#977C8F"/><stop offset="100%" stop-color="#93778B"/></linearGradient><linearGradient id="P" x1="0%" x2="99.999%" y1="50.001%" y2="50.001%"><stop offset="0%" stop-color="#93778B"/><stop offset="31.97%" stop-color="#967C90"/><stop offset="71.76%" stop-color="#A08C9D"/><stop offset="100%" stop-color="#A99BAB"/></linearGradient><linearGradient id="Q" x1="50%" x2="50%" y1="100%" y2="0%"><stop offset="0%" stop-color="#895E68"/><stop offset="5.5%" stop-color="#8D616A"/><stop offset="36.19%" stop-color="#A17174"/><stop offset="67.47%" stop-color="#AC7A7A"/><stop offset="100%" stop-color="#B07D7C"/></linearGradient><linearGradient id="R" x1="50%" x2="50%" y1="100%" y2="0%"><stop offset="0%" stop-color="#895E68"/><stop offset="5.5%" stop-color="#8D616A"/><stop offset="36.19%" stop-color="#A17174"/><stop offset="67.47%" stop-color="#AC7A7A"/><stop offset="100%" stop-color="#B07D7C"/></linearGradient><linearGradient id="S" x1="0%" x2="99.999%" y1="50.003%" y2="50.003%"><stop offset="0%" stop-color="#B07D7C"/><stop offset="32.53%" stop-color="#AC7A7A"/><stop offset="63.81%" stop-color="#A17174"/><stop offset="94.5%" stop-color="#8D616A"/><stop offset="100%" stop-color="#895E68"/></linearGradient><linearGradient id="T" x1="0%" x2="100%" y1="49.997%" y2="49.997%"><stop offset="0%" stop-color="#B07D7C"/><stop offset="32.53%" stop-color="#AC7A7A"/><stop offset="63.81%" stop-color="#A17174"/><stop offset="94.5%" stop-color="#8D616A"/><stop offset="100%" stop-color="#895E68"/></linearGradient><linearGradient id="U" x1="0%" x2="100.001%" y1="50%" y2="50%"><stop offset="0%" stop-color="#B07D7C"/><stop offset="32.53%" stop-color="#AC7A7A"/><stop offset="63.81%" stop-color="#A17174"/><stop offset="94.5%" stop-color="#8D616A"/><stop offset="100%" stop-color="#895E68"/></linearGradient><linearGradient id="V" x1="0%" x2="99.999%" y1="49.998%" y2="49.998%"><stop offset="0%" stop-color="#B07D7C"/><stop offset="32.53%" stop-color="#AC7A7A"/><stop offset="63.81%" stop-color="#A17174"/><stop offset="94.5%" stop-color="#8D616A"/><stop offset="100%" stop-color="#895E68"/></linearGradient><linearGradient id="W" x1="50%" x2="50%" y1="100%" y2="0%"><stop offset="0%" stop-color="#5B252C"/><stop offset="26.42%" stop-color="#5E2930"/><stop offset="51.81%" stop-color="#67343B"/><stop offset="76.72%" stop-color="#76464F"/><stop offset="100%" stop-color="#895E68"/></linearGradient><linearGradient id="X" x1="0%" x2="100%" y1="49.998%" y2="49.998%"><stop offset="0%" stop-color="#895E68"/><stop offset="100%" stop-color="#5B252C"/></linearGradient><linearGradient id="Y" x1="0%" x2="100%" y1="50.001%" y2="50.001%"><stop offset="0%" stop-color="#895E68"/><stop offset="100%" stop-color="#5B252C"/></linearGradient><linearGradient id="Z" x1="0%" x2="100.001%" y1="50.002%" y2="50.002%"><stop offset="0%" stop-color="#895E68"/><stop offset="100%" stop-color="#5B252C"/></linearGradient><linearGradient id="aa" x1="0%" x2="99.999%" y1="50.001%" y2="50.001%"><stop offset="0%" stop-color="#895E68"/><stop offset="100%" stop-color="#5B252C"/></linearGradient><linearGradient id="ab" x1="50%" x2="50%" y1="100%" y2="0%"><stop offset="0%" stop-color="#5B252C"/><stop offset="26.42%" stop-color="#5E2930"/><stop offset="51.81%" stop-color="#67343B"/><stop offset="76.72%" stop-color="#76464F"/><stop offset="100%" stop-color="#895E68"/></linearGradient><linearGradient id="ac" x1="-.001%" x2="100.001%" y1="49.999%" y2="49.999%"><stop offset="0%" stop-color="#EAAEA4"/><stop offset="31.26%" stop-color="#E8A89D"/><stop offset="78.25%" stop-color="#E39688"/><stop offset="100%" stop-color="#E08C7C"/></linearGradient><linearGradient id="ad" x1="33.811%" x2="76.869%" y1="39.968%" y2="75.507%"><stop offset="0%" stop-color="#DC6734"/><stop offset="100%" stop-color="#AE2E41"/></linearGradient><linearGradient id="ae" x1="-.001%" x2="99.999%" y1="50%" y2="50%"><stop offset="0%" stop-color="#EAAEA4"/><stop offset="31.26%" stop-color="#E8A89D"/><stop offset="78.25%" stop-color="#E39688"/><stop offset="100%" stop-color="#E08C7C"/></linearGradient><linearGradient id="af" x1="-.002%" x2="100%" y1="50.001%" y2="50.001%"><stop offset="0%" stop-color="#5B252C"/><stop offset="100%" stop-color="#250F50"/></linearGradient><linearGradient id="ag" x1="0%" x2="99.999%" y1="50.009%" y2="50.009%"><stop offset="0%" stop-color="#2421A2"/><stop offset="100%" stop-color="#5C60D5"/></linearGradient><linearGradient id="ah" x1="-.001%" x2="100%" y1="49.999%" y2="49.999%"><stop offset="0%" stop-color="#5C60D5"/><stop offset="100%" stop-color="#2421A2"/></linearGradient><linearGradient id="ai" x1="15.618%" x2="88.777%" y1="-.33%" y2="112.841%"><stop offset="0%" stop-color="#2421A2"/><stop offset="100%" stop-color="#250F50"/></linearGradient><linearGradient id="aj" x1="-.003%" x2="99.993%" y1="50.001%" y2="50.001%"><stop offset="0%" stop-color="#EAAEA4"/><stop offset="31.26%" stop-color="#E8A89D"/><stop offset="78.25%" stop-color="#E39688"/><stop offset="100%" stop-color="#E08C7C"/></linearGradient><linearGradient id="ak" x1="24.482%" x2="100.408%" y1="13.643%" y2="90.35%"><stop offset="0%" stop-color="#DC6734"/><stop offset="100%" stop-color="#AE2E41"/></linearGradient><linearGradient id="al" x1=".001%" x2="100.001%" y1="50%" y2="50%"><stop offset="0%" stop-color="#EA971D"/><stop offset="100%" stop-color="#E1772C"/></linearGradient></defs><g fill="none" fill-rule="evenodd" transform="translate(0 -1)"><g transform="translate(227 459)"><ellipse cx="13.355" cy="27.992" fill="#B5A8AE" rx="13.326" ry="13.324"/><ellipse cx="358.029" cy="16.347" fill="url(#a)" rx="15.384" ry="15.382"/></g><g transform="translate(301 360)"><path fill="#E3DDE4" d="M51.7249655,86.319 L49.8504828,86.319 C43.296,86.319 37.982069,81.0662727 37.982069,74.5862727 L37.982069,36.9163636 C37.982069,30.8487273 42.6422069,25.8561818 48.6165517,25.2458182 C48.4816552,25.2425455 48.350069,25.227 48.2143448,25.227 L46.2198621,25.227 C39.2424828,25.227 33.585931,30.8184545 33.585931,37.7173636 L33.585931,77.8180909 C33.585931,84.717 39.2424828,90.3084545 46.2198621,90.3084545 L48.2143448,90.3084545 C53.1351724,90.3084545 57.3889655,87.5200909 59.4744828,83.4610909 C57.3947586,85.2373636 54.6893793,86.319 51.7249655,86.319 Z"/><path fill="url(#b)" fill-rule="nonzero" d="M95.9793103,116.821636 C95.9793103,116.821636 86.8328276,81.0981818 83.0126897,54.6545455 C79.6882759,31.6399091 75.6984828,0.684 75.6984828,0.684 L48.2143448,0.684 L48.2143448,0.697909091 L48.2068966,0.684 L20.7235862,0.684 C20.7235862,0.684 16.7337931,31.6399091 13.4085517,54.6545455 C9.58924138,81.0981818 0.442758621,116.821636 0.442758621,116.821636 L48.2068966,116.821636 L48.2143448,116.806909 L48.2143448,116.821636 L95.9793103,116.821636 Z M46.2198621,90.3076364 C39.2424828,90.3076364 33.585931,84.7161818 33.585931,77.8172727 L33.585931,37.7165455 C33.585931,30.8176364 39.2424828,25.2261818 46.2198621,25.2261818 L48.2143448,25.2261818 C55.1925517,25.2261818 60.8482759,30.8176364 60.8482759,37.7165455 L60.8482759,77.8172727 C60.8482759,84.7161818 55.1925517,90.3076364 48.2143448,90.3076364 L46.2198621,90.3076364 Z"/></g><g transform="translate(174 119)"><path fill="#FFF" d="M350.549591,230.30171 L350.549591,13.9351433 C350.549591,7.71327707 345.498909,2.66858599 339.267852,2.66858599 L87.1194205,2.66858599 C84.1196705,8.33288535 79.6103636,13.110879 72.1150227,16.1267357 C48.8447727,25.4893471 28.9437955,24.8141433 4.5795,25.5401083 L4.5795,230.30171 L350.549591,230.30171 Z"/><path fill="url(#c)" d="M350.549591,13.9351433 C350.549591,7.71327707 345.498909,2.66858599 339.267852,2.66858599 L308.62167,2.66858599 L307.107273,5.93019108 C309.538216,14.3460669 307.755148,21.4671306 295.546375,25.1896146 C277.898034,30.5702962 246.077932,25.715758 239.473318,46.4448376 C234.934966,60.686965 241.30883,74.6059936 247.359159,81.0800541 C253.410295,87.5541146 260.755568,100.069557 246.063409,103.091054 C231.369636,106.112551 212.782159,99.2597962 199.822239,98.127742 C180.050352,96.4010573 153.364034,95.8612166 140.939034,114.959494 C131.746955,129.088013 138.778375,142.580809 149.095966,144.469446 C156.964864,145.90929 165.355773,142.203726 168.543511,134.758758 C171.481943,127.895529 167.953727,121.886376 162.872386,120.840535 C157.632102,119.761659 152.676625,123.318968 151.63583,126.613608 C150.663614,129.688283 152.479761,131.314252 154.444364,131.145048 C157.577239,130.875127 158.928659,128.123551 160.170352,129.418363 C161.759784,131.074949 159.386932,135.164041 154.768705,136.000392 C151.287284,136.63128 146.908682,135.811045 145.909034,129.526331 C144.972318,123.633204 147.962386,118.250911 154.876818,115.17543 C161.292636,112.322331 168.922716,113.664682 173.676489,120.354678 C178.431068,127.044675 176.971534,138.643194 170.65092,144.415462 C161.216795,153.032771 149.566341,154.113258 131.539602,158.333685 C108.517852,163.724035 73.4131932,172.305892 68.2269659,199.118252 C65.1634773,214.954118 72.7758068,224.712344 80.1477045,230.300904 L350.550398,230.300904 L350.550398,13.9351433 L350.549591,13.9351433 Z"/><path fill="url(#d)" d="M216.675864,209.046487 C231.159057,205.810666 257.731614,199.659704 265.294727,175.868035 C272.266443,153.938414 254.110614,150.800086 255.570955,132.870927 C256.866705,116.956099 287.009432,110.786605 316.07425,104.602608 C345.484386,98.3444841 340.708023,84.3174873 338.979011,77.4123599 C338.979011,77.4123599 334.999784,58.8063854 350.550398,52.1735955 L350.550398,17.2990764 L347.623261,15.9647834 C346.97458,20.4970287 331.286,36.7776592 314.744614,37.3481178 C298.140295,37.9217994 274.694966,32.9584873 262.863784,48.4954268 C253.471614,60.8295796 262.053739,74.4988312 267.40133,81.3499745 C271.011841,85.9756847 276.568398,102.768761 260.594205,107.083459 C240.822318,112.423854 222.810102,105.433318 210.030909,103.037876 C194.20275,100.070363 182.317511,105.033675 180.210909,111.291799 C176.646386,121.878318 191.312727,124.472777 190.420386,138.643194 C189.663591,150.673586 169.302727,161.112656 140.343602,165.347586 C107.877239,170.095768 95.5805227,182.185783 95.1278977,196.637401 C94.6954432,210.448462 104.690307,217.137653 116.844216,218.270513 C128.483375,219.35664 143.52892,216.742844 144.359943,230.30171 L188.916477,230.30171 C184.61775,210.801373 204.501784,211.76664 216.675864,209.046487 Z"/><path fill="url(#e)" d="M283.445716,146.681987 C278.098125,159.359382 295.924773,162.434863 292.30458,186.603615 C289.086182,208.0925 252.329159,205.162051 240.445534,212.283115 C233.360864,216.529325 232.495955,224.529443 232.954227,230.30171 L350.550398,230.30171 L350.550398,132.69286 C337.180614,140.962092 290.311739,130.40458 283.445716,146.681987 Z"/><path fill="url(#f)" d="M338.979011,77.4123599 C340.70883,84.3174873 345.484386,98.3444841 316.07425,104.602608 C287.009432,110.787411 256.866705,116.956904 255.570955,132.870927 C254.109807,150.800086 272.265636,153.937608 265.294727,175.868035 C257.731614,199.658898 231.159057,205.810666 216.675864,209.046487 C204.501784,211.76664 184.618557,210.801373 188.916477,230.30171 L232.954227,230.30171 C232.496761,224.529443 233.360864,216.528519 240.445534,212.283115 C252.329159,205.162051 289.086182,208.0925 292.30458,186.603615 C295.923966,162.434863 278.098125,159.359382 283.445716,146.681987 C290.312545,130.40458 337.18142,140.962092 350.550398,132.69286 L350.550398,52.1744013 C334.999784,58.8063854 338.979011,77.4123599 338.979011,77.4123599 Z"/><path fill="url(#g)" d="M322.016466,52.0559586 C317.802455,56.5882038 310.564489,58.3140828 303.43383,59.2849904 C296.30317,60.2558981 283.55383,61.5507102 277.449443,72.448242 C271.378943,83.2869554 277.062977,99.5691975 289.76633,100.609398 C306.891852,102.012178 311.321284,86.4752389 315.85883,81.673879 C319.989739,77.3019745 329.147932,75.0378662 329.310102,68.0787548 C329.472273,61.1196433 322.016466,52.0559586 322.016466,52.0559586 Z"/><path fill="url(#h)" d="M184.046523,186.171742 C194.026864,188.135312 209.976852,186.021876 215.162273,179.266615 C220.132273,172.792554 217.323739,165.023682 221.645057,160.924115 C225.965568,156.824548 243.378318,144.920656 246.70967,138.265306 C249.735239,132.223118 247.358352,124.455051 240.44392,122.081363 C233.74975,119.782608 227.910807,122.728366 224.886045,128.770554 C221.860477,134.813548 219.051943,143.876427 207.382932,150.565618 C197.64383,156.149344 175.70725,162.137548 172.593739,172.144745 C170.109545,180.13036 176.915864,184.768962 184.046523,186.171742 Z"/><path fill="#93778B" d="M339.536578,9.1426465 C341.306942,9.1426465 342.748645,10.2481115 342.748645,11.6073822 L342.748645,230.409678 L354.559477,230.409678 L354.559477,11.6065764 C354.559477,5.24048408 347.833981,0.0789617834 339.536578,0.0789617834 L8.11505192,0.0789617834 C6.23233303,3.3881051 3.82039479,6.46036306 0.546375,9.1426465 L339.536578,9.1426465 Z"/><path fill="#93778B" d="M9.64551136,230.408873 L9.64551136,0.403133758 C6.68610227,0.485396829 3.66456818,0.578507778 0.569613636,0.705970338 L0.569613636,230.408873 L9.64551136,230.408873 Z"/><path fill="url(#i)" d="M0.569613636,228.682188 L0.569613636,240.892258 C0.569613636,247.257545 5.73809091,252.419873 12.1135682,252.419873 L343.017136,252.419873 C349.391807,252.419873 354.560284,247.25835 354.560284,240.892258 L354.560284,228.682188 L0.569613636,228.682188 Z"/><g transform="translate(27.432 68.487)"><path fill="#E3DDE4" d="M106.915511,43.0929904 C106.915511,44.5231656 105.755307,45.6826146 104.322398,45.6826146 L4.16721591,45.6826146 C2.73592045,45.6826146 1.57410227,44.5231656 1.57410227,43.0929904 L1.57410227,3.60242994 C1.57410227,2.17225478 2.73511364,1.01280573 4.16721591,1.01280573 L104.322398,1.01280573 C105.7545,1.01280573 106.915511,2.17225478 106.915511,3.60242994 L106.915511,43.0929904 Z"/><path fill="#B5A8AE" fill-rule="nonzero" d="M104.322398,46.6535223 L4.16721591,46.6535223 C2.20180682,46.6535223 0.601886364,45.0565605 0.601886364,43.0929904 L0.601886364,3.60242994 C0.601886364,1.63885987 2.20180682,0.0418980892 4.16721591,0.0418980892 L104.322398,0.0418980892 C106.288614,0.0418980892 107.887727,1.63885987 107.887727,3.60242994 L107.887727,43.0929904 C107.887727,45.0565605 106.287807,46.6535223 104.322398,46.6535223 Z M4.16721591,1.98451911 C3.27406818,1.98451911 2.54631818,2.71048408 2.54631818,3.60242994 L2.54631818,43.0929904 C2.54631818,43.9849363 3.27326136,44.711707 4.16721591,44.711707 L104.322398,44.711707 C105.216352,44.711707 105.943295,43.985742 105.943295,43.0929904 L105.943295,3.60242994 C105.943295,2.71048408 105.217159,1.98451911 104.322398,1.98451911 L4.16721591,1.98451911 Z"/></g><g fill="#FFF" transform="translate(37.92 79.768)"><path d="M1.86375 2.92319745L85.4872273 2.92319745C86.2480568 2.92319745 86.8652727 2.30761783 86.8652727 1.5478121 86.8652727.788006369 86.2480568.171621019 85.4872273.171621019L1.86375.171621019C1.10292045.171621019.485704545.787200637.485704545 1.5478121.485704545 2.30761783 1.10211364 2.92319745 1.86375 2.92319745zM1.86375 13.4436465L16.9617386 13.4436465 21.823625 13.4436465 42.2700114 13.4436465C43.0308409 13.4436465 43.6480568 12.8280669 43.6480568 12.0674554 43.6480568 11.3076497 43.0308409 10.6912643 42.2700114 10.6912643L21.823625 10.6912643 16.9617386 10.6912643 1.86375 10.6912643C1.10292045 10.6912643.485704545 11.3076497.485704545 12.0674554.485704545 12.8280669 1.10211364 13.4436465 1.86375 13.4436465zM85.4872273 10.6920701L75.4132955 10.6920701 74.2240455 10.6920701 69.3887841 10.6920701C68.6279545 10.6920701 68.0115455 11.3084554 68.0115455 12.0682611 68.0115455 12.8280669 68.6279545 13.4444522 69.3887841 13.4444522L74.2240455 13.4444522 75.4132955 13.4444522 85.4872273 13.4444522C86.2480568 13.4444522 86.8652727 12.8288726 86.8652727 12.0682611 86.8652727 11.3084554 86.2480568 10.6920701 85.4872273 10.6920701zM62.0144659 12.0682611C62.0144659 11.3084554 61.3980568 10.6920701 60.6372273 10.6920701L58.7734773 10.6920701 55.424375 10.6920701 51.1304886 10.6920701C50.3696591 10.6920701 49.7524432 11.3084554 49.7524432 12.0682611 49.7524432 12.8280669 50.3696591 13.4444522 51.1304886 13.4444522L55.424375 13.4444522 58.7734773 13.4444522 60.6372273 13.4444522C61.3988636 13.4436465 62.0144659 12.8280669 62.0144659 12.0682611zM70.2536932 21.2125191L68.3891364 21.2125191 65.0408409 21.2125191 60.7461477 21.2125191C59.986125 21.2125191 59.3689091 21.8280987 59.3689091 22.5887102 59.3689091 23.3485159 59.986125 23.9640955 60.7461477 23.9640955L65.0408409 23.9640955 68.3891364 23.9640955 70.2536932 23.9640955C71.0145227 23.9640955 71.6309318 23.3485159 71.6309318 22.5887102 71.6309318 21.8280987 71.0153295 21.2125191 70.2536932 21.2125191zM50.7246591 21.2125191L27.4689318 21.2125191 8.99440909 21.2125191 1.86375 21.2125191C1.10292045 21.2125191.485704545 21.8280987.485704545 22.5887102.485704545 23.3485159 1.10292045 23.9640955 1.86375 23.9640955L8.99440909 23.9640955 27.4689318 23.9640955 50.7246591 23.9640955C51.4854886 23.9640955 52.1027045 23.3485159 52.1027045 22.5887102 52.1027045 21.8280987 51.4854886 21.2125191 50.7246591 21.2125191z"/></g><polygon fill="#B5A8AE" points="105.989 35.119 107.642 35.103 107.256 79.493 105.603 79.508" transform="rotate(56.51 106.623 57.306)"/><polygon fill="#B5A8AE" points="58.81 188.205 57.331 186.944 94.708 143.254 59.192 114.964 60.405 113.446 97.493 142.989"/><rect width="137.429" height="1.942" x="77.95" y="195.667" fill="#93778B"/><g transform="translate(27.432 186.124)"><path fill="#BE4118" d="M61.5376364,11.1618121 C61.5376364,15.8100828 57.7641477,19.5776879 53.1104205,19.5776879 L10.0013182,19.5776879 C5.34678409,19.5776879 1.57410227,15.8100828 1.57410227,11.1618121 L1.57410227,9.867 C1.57410227,5.2187293 5.34759091,1.4511242 10.0013182,1.4511242 L53.1104205,1.4511242 C57.7649545,1.4511242 61.5376364,5.21953503 61.5376364,9.867 L61.5376364,11.1618121 Z"/><path fill="#B5A8AE" fill-rule="nonzero" d="M53.1104205,20.5477898 L10.0013182,20.5477898 C4.81831818,20.5477898 0.601886364,16.3370318 0.601886364,11.1610064 L0.601886364,9.86619427 C0.601886364,4.69016879 4.819125,0.479410828 10.0013182,0.479410828 L53.1104205,0.479410828 C58.2934205,0.479410828 62.5098523,4.69097452 62.5098523,9.86619427 L62.5098523,11.1610064 C62.5106591,16.3370318 58.2934205,20.5477898 53.1104205,20.5477898 Z M10.0013182,2.42122611 C5.89057955,2.42122611 2.54631818,5.76098726 2.54631818,9.86619427 L2.54631818,11.1610064 C2.54631818,15.2662134 5.89138636,18.6059745 10.0013182,18.6059745 L53.1104205,18.6059745 C57.2211591,18.6059745 60.5654205,15.2662134 60.5654205,11.1610064 L60.5654205,9.86619427 C60.5654205,5.76098726 57.2203523,2.42122611 53.1104205,2.42122611 L10.0013182,2.42122611 Z"/></g><g transform="translate(112.955 186.124)"><path fill="#5C60D5" d="M60.93575,11.1618121 C60.93575,15.8100828 57.1630682,19.5776879 52.5085341,19.5776879 L9.40023864,19.5776879 C4.74489773,19.5776879 0.973022727,15.8100828 0.973022727,11.1618121 L0.973022727,9.867 C0.973022727,5.2187293 4.74570455,1.4511242 9.40023864,1.4511242 L52.5085341,1.4511242 C57.163875,1.4511242 60.93575,5.21953503 60.93575,9.867 L60.93575,11.1618121 Z"/><path fill="#93778B" fill-rule="nonzero" d="M52.5085341,20.5477898 L9.40023864,20.5477898 C4.21723864,20.5477898 0.000806818182,16.3370318 0.000806818182,11.1610064 L0.000806818182,9.86619427 C0.000806818182,4.69016879 4.21804545,0.479410828 9.40023864,0.479410828 L52.5085341,0.479410828 C57.6915341,0.479410828 61.9079659,4.69097452 61.9079659,9.86619427 L61.9079659,11.1610064 C61.9079659,16.3370318 57.6915341,20.5477898 52.5085341,20.5477898 Z M9.40023864,2.42122611 C5.28869318,2.42122611 1.94523864,5.76098726 1.94523864,9.86619427 L1.94523864,11.1610064 C1.94523864,15.2662134 5.2895,18.6059745 9.40023864,18.6059745 L52.5085341,18.6059745 C56.6192727,18.6059745 59.9635341,15.2662134 59.9635341,11.1610064 L59.9635341,9.86619427 C59.9635341,5.76098726 56.6184659,2.42122611 52.5085341,2.42122611 L9.40023864,2.42122611 Z"/></g><ellipse cx="96.1" cy="143.121" fill="#B5A8AE" rx="9.292" ry="9.28"/><ellipse cx="96.1" cy="143.121" fill="#FFF" rx="4.079" ry="4.074"/><g transform="translate(87.943 24.172)"><path fill="#5C60D5" d="M70.281125,12.5799013 C70.281125,17.9315764 65.9364091,22.2696401 60.5783295,22.2696401 L10.9444886,22.2696401 C5.58560227,22.2696401 1.2425,17.9307707 1.2425,12.5799013 L1.2425,11.0892962 C1.2425,5.73762102 5.58640909,1.39955732 10.9444886,1.39955732 L60.5783295,1.39955732 C65.9372159,1.39955732 70.281125,5.73762102 70.281125,11.0892962 L70.281125,12.5799013 Z"/><path fill="#B5A8AE" fill-rule="nonzero" d="M60.5783295,23.2405478 L10.9444886,23.2405478 C5.05875,23.2405478 0.270284091,18.4577197 0.270284091,12.5799013 L0.270284091,11.0892962 C0.270284091,5.21067197 5.05955682,0.428649682 10.9444886,0.428649682 L60.5783295,0.428649682 C66.464875,0.428649682 71.2533409,5.21147771 71.2533409,11.0892962 L71.2533409,12.5799013 C71.2533409,18.4585255 66.464875,23.2405478 60.5783295,23.2405478 Z M10.9444886,2.37046497 C6.13101136,2.37046497 2.21471591,6.28149045 2.21471591,11.0892962 L2.21471591,12.5799013 C2.21471591,17.387707 6.13101136,21.2987325 10.9444886,21.2987325 L60.5783295,21.2987325 C65.3926136,21.2987325 69.3089091,17.387707 69.3089091,12.5799013 L69.3089091,11.0892962 C69.3089091,6.28149045 65.3926136,2.37046497 60.5783295,2.37046497 L10.9444886,2.37046497 Z"/></g></g><path fill="url(#j)" d="M237.439124,16.4516691 C144.898532,-15.7889338 42.6999772,9.00242647 0.659434146,25.4108382 C26.3814065,39.8865441 87.2990602,38.3545809 110.317029,54.0423088 C120.676449,61.1022353 126.766517,72.3075221 131.139309,84.8529706 C153.615831,91.6786544 175.407059,99.0658676 192.854587,105.636904 C238.12361,122.684382 378.923306,90.9742941 410.37088,83.5381103 L410.37088,44.5591544 C378.353574,51.7847647 339.10512,51.8712794 237.439124,16.4516691 Z" transform="translate(213 467)"/><g transform="translate(317 500)"><path fill="url(#k)" d="M227.699589,105.788874 C232.48216,113.502634 227.828926,121.765613 211.800799,128.651771 C198.290882,134.456632 191.431199,144.567485 200.423011,152.092686 C200.653694,152.285359 200.896924,152.47666 201.148842,152.665904 C201.201928,152.705673 201.255979,152.744756 201.31003,152.784525 C201.52527,152.942914 201.747266,153.100617 201.977949,153.256264 C202.038757,153.297404 202.098599,153.338544 202.159407,153.379684 C202.419046,153.551101 202.687372,153.721146 202.96535,153.889821 C202.994306,153.906962 203.022297,153.925475 203.051253,153.942617 C203.681529,154.32042 204.36103,154.688623 205.087827,155.046542 C205.166973,155.085625 205.249015,155.124022 205.329127,155.163105 C205.614827,155.300239 205.907282,155.436001 206.206495,155.571077 C206.303015,155.614274 206.39857,155.657471 206.49702,155.699983 C206.814571,155.839173 207.14274,155.976307 207.477664,156.112755 C207.55102,156.142924 207.621479,156.173093 207.6958,156.202577 C208.117593,156.36988 208.549037,156.535126 208.99496,156.697629 C209.003647,156.700372 209.011369,156.703114 209.018125,156.705857 C209.439918,156.858761 209.876189,157.007551 210.321146,157.154969 C210.443727,157.195424 210.569203,157.235192 210.693714,157.275647 C211.03636,157.386039 211.386728,157.49506 211.743853,157.603396 C211.889598,157.646593 212.037274,157.691161 212.185915,157.734358 C212.553656,157.842008 212.930084,157.947601 213.311339,158.051822 C213.442606,158.087477 213.570978,158.123132 213.702245,158.158786 C214.220558,158.29592 214.748523,158.430996 215.291931,158.562645 C215.313166,158.567444 215.33633,158.572244 215.357565,158.577044 C215.871052,158.700464 216.399982,158.81977 216.937599,158.937019 C217.109405,158.974731 217.284106,159.010385 217.458807,159.047412 C217.859366,159.132434 218.26668,159.2154 218.681717,159.296994 C218.882479,159.336763 219.086136,159.375846 219.290759,159.414929 C219.712551,159.494467 220.141101,159.571947 220.575441,159.648056 C220.76269,159.681654 220.948974,159.715252 221.139118,159.747478 C221.762638,159.853071 222.39581,159.956607 223.046356,160.054657 C224.066573,160.208932 225.102234,160.348123 226.144651,160.480457 C226.437106,160.517483 226.731493,160.552452 227.026844,160.588106 C227.861743,160.688899 228.704363,160.783522 229.55374,160.871287 C229.79118,160.895971 230.025724,160.922712 230.264128,160.946025 C231.321988,161.050932 232.389501,161.146925 233.4657,161.234005 C233.713756,161.25389 233.965674,161.271717 234.21373,161.29023 C235.082411,161.357425 235.957849,161.41845 236.837147,161.474674 C237.146976,161.493873 237.458736,161.514443 237.770496,161.532956 C238.857312,161.597409 239.948954,161.656376 241.049284,161.705744 C241.069553,161.70643 241.088857,161.707801 241.110091,161.708487 C242.228759,161.758541 243.357079,161.798995 244.488295,161.835336 C244.815498,161.846306 245.143666,161.854534 245.471834,161.864134 C246.364645,161.889503 247.260352,161.910759 248.157988,161.929272 C248.430175,161.934757 248.701397,161.941614 248.973583,161.945728 C250.099973,161.964927 251.230223,161.979326 252.364334,161.988239 C252.655825,161.990982 252.947316,161.990982 253.238806,161.993039 C254.125826,161.997839 255.013811,162.000581 255.903726,161.999896 C256.262781,161.999896 256.621836,161.999896 256.981856,161.998524 C258.039716,161.995782 259.097576,161.989611 260.158332,161.980697 C260.321451,161.979326 260.48457,161.977954 260.647689,161.975897 C261.713271,161.964927 262.779818,161.951899 263.846365,161.935443 C264.260436,161.929272 264.673542,161.922415 265.087613,161.915559 C265.688933,161.905274 266.290253,161.894989 266.891574,161.883332 C312.793635,159.88324 396.669597,136.281879 413.243062,76.3613969 C413.247888,76.3607112 413.250784,76.3600255 413.25561,76.3593399 C413.272983,76.2791168 413.291322,76.198208 413.308696,76.1172993 C413.475676,75.3164396 413.653273,74.513523 413.843417,73.7099207 C413.980476,73.123675 414.12043,72.5367436 414.269071,71.9491265 C414.360765,71.5918938 414.454389,71.2353467 414.549944,70.8774283 C414.801862,69.9318928 415.063431,68.984986 415.349131,68.0346508 C415.629039,67.106257 415.945625,66.1826629 416.278619,65.2611258 C416.373209,65.0005721 416.469729,64.7407042 416.569145,64.4808362 C416.850983,63.7341443 417.14923,62.9895094 417.463886,62.2462458 C417.543032,62.0583729 417.616388,61.8691287 417.69843,61.6819415 C418.039146,60.8975379 418.393374,60.1158769 418.765942,59.334216 L418.776559,59.3390156 C425.232788,45.8450793 436.519848,32.6720354 447,17.5386681 C415.883852,16.2653836 371.317629,2.58220303 335.267374,0.60816631 C335.245174,0.606109308 335.222009,0.604737973 335.19981,0.603366638 C335.168923,0.601309635 335.138037,0.598566965 335.10715,0.59719563 C328.565983,0.162482438 321.581789,-0.0576168277 314.169046,0.0130069243 C256.521455,0.563597923 205.855162,26.6402184 187.263461,27.0564186 C160.331459,27.6604917 119.774681,13.4178065 74.1496321,11.5822746 C38.6553326,10.1533435 15.4364587,14.0115945 0,19.106104 C41.1909155,38.8526422 25.8915153,97.159749 66.3787993,107.265117 C103.817013,116.608708 171.307724,98.0620874 187.373494,95.8713798 C206.566515,93.2548726 221.815724,96.2992363 227.699589,105.788874 Z"/><path fill="url(#l)" d="M81.9015602,45.3278853 C107.952623,42.8002942 131.757938,54.072859 148.712444,53.2744831 C164.044228,52.5522286 184.262797,37.3698993 199.069601,36.1783292 C212.531065,35.0940484 224.140204,38.8275947 223.99872,50.8667683 C223.874611,61.4614328 209.290583,62.6649905 199.817356,62.4246386 C190.34413,62.1836873 165.271665,59.4301294 157.686133,61.2198821 C146.468557,63.8691476 147.038837,72.8514764 136.497033,77.3528302 C124.655189,82.4104099 98.8535849,82.1688592 77.9127025,76.871527 C56.9724408,71.5741947 43.5221467,66.2990396 44.0129971,63.8691476 C44.503227,61.4386563 53.3577712,48.0964277 81.9015602,45.3278853 Z"/></g><g transform="translate(584 276)"><path fill="#EA971D" d="M3.97219512,1.21352174 C6.82321951,3.94291304 9.59795122,6.73921739 12.3262439,9.57682609 C15.0694634,12.4012174 17.7131707,15.3123478 20.4621951,18.1326087 C23.2087317,20.9545217 25.9967317,23.7384348 28.4563415,26.8123043 C29.0741463,27.578087 29.6753659,28.3587391 30.2674634,29.1468261 C30.8462927,29.9464783 31.4566341,30.7196957 31.9566829,31.5887391 C32.4625366,32.452 32.887122,33.3887826 33.2238049,34.399913 C33.5497073,35.4226087 33.796,36.5138696 33.8167317,37.8042174 C32.5338537,37.6216522 31.4781951,37.2408261 30.5004878,36.7906087 C29.5352195,36.3296522 28.6561951,35.7943478 27.8592683,35.1846957 C27.0565366,34.5816522 26.3640976,33.8819565 25.6393171,33.2095217 C24.9294634,32.5255217 24.2262439,31.8332609 23.5420976,31.1261304 C20.7897561,28.31 18.3666341,25.2047391 15.9020488,22.1366522 C13.4374634,19.066087 10.870878,16.0880435 8.40214634,13.0224348 C5.91931707,9.97004348 3.48209756,6.87634783 1.12282927,3.71573913 C0.494243902,2.87395652 0.669219512,1.6843913 1.5142439,1.05904348 C2.27136585,0.497304348 3.31209756,0.581565217 3.97219512,1.21352174 Z"/><path fill="#BE4118" d="M26.7380976 34.8906087C26.733122 34.8906087 26.7289756 34.8906087 26.7248293 34.8906087 26.3616098 34.884 26.0713659 34.6006522 26.0713659 34.2388261 26.0713659 33.5573043 26.668439 32.2942174 27.6693659 31.3615652 28.7109268 30.390087 30.0087317 29.9283043 31.4218049 30.0183478 31.7891707 30.0423043 32.0669756 30.3586957 32.0429268 30.7246522 32.0197073 31.0906087 31.7045854 31.3681739 31.3347317 31.3433913 30.3080976 31.2756522 29.4050244 31.5895652 28.6396098 32.2760435 27.8078537 33.022 27.413122 33.9967826 27.404 34.2413043 27.3899024 34.5981739 27.0955122 34.8906087 26.7380976 34.8906087zM7.0695122 4.25104348C6.04287805 3.23330435 5.01707317 2.21473913 3.97219512 1.21352174 3.31209756.581565217 2.27136585.497304348 1.51341463 1.05986957.668390244 1.68521739.494243902 2.87478261 1.122 3.71656522 2.00682927 4.90282609 2.91404878 6.07173913 3.81960976 7.24065217 4.35365854 6.07586957 5.29736585 4.80947826 7.0695122 4.25104348zM33.5530244 35.6398696L31.8712683 37.3358261C32.4683415 37.5373913 33.1052195 37.7026087 33.8167317 37.8033913 33.8042927 37.0161304 33.7014634 36.3081739 33.5530244 35.6398696z"/></g><g transform="translate(484 411)"><path fill="#EAAEA4" d="M59.0632979,100.05555 C61.2542553,104.7179 72.8744681,133.850033 72.2178191,136.07055 C71.5611702,138.291067 42.5489362,148.496133 36.5369681,146.2405 C35.7534574,145.945683 35.8954787,144.053467 37.1305851,143.363383 C40.2805851,141.604283 55.7680851,131.913717 57.1404255,128.9533 C58.3986702,126.2387 46.193617,106.909833 46.4026596,106.79305 C47.0680851,106.421467 59.0632979,100.05555 59.0632979,100.05555 Z"/><path fill="#FFF" d="M70.9707447,130.841433 C69.8058511,127.2481 67.9827128,122.288483 66.0949468,117.372967 C62.0058511,121.033267 57.4707447,121.77235 54.7946809,121.8777 C56.4494681,125.211333 57.5672872,128.03455 57.1412234,128.9533 C56.5914894,130.14155 53.7678191,132.411067 50.3832447,134.8186 C54.9510638,135.19345 63.6590426,135.9064 63.8353723,135.9064 C63.9678191,135.905583 67.6587766,133.246517 70.9707447,130.841433 Z"/><path fill="#5B252C" d="M36.537766,146.239683 C42.549734,148.495317 71.5619681,138.29025 72.218617,136.069733 C72.4045213,135.43845 71.600266,132.634017 70.3029255,128.838967 C68.2308511,130.032117 66.0765957,132.7263 64.5582447,133.44415 C62.475,134.428233 60.6055851,134.319617 57.1595745,133.663017 C55.4529255,133.339617 54.1867021,133.0203 53.0401596,132.862683 C47.8332447,136.861083 39.3702128,142.113883 37.1321809,143.362567 C35.8962766,144.053467 35.7542553,145.944867 36.537766,146.239683 Z"/><path fill="url(#m)" d="M0.745212766,0.297266667 C0.959840426,5.5468 8.22526596,50.6039333 11.2164894,68.1010167 C14.2077128,85.5981 20.243617,115.234933 21.8465426,115.727383 C23.4494681,116.219017 32.1031915,116.711467 47.649734,113.4301 C63.1946809,110.148733 74.5739362,103.750967 74.7343085,103.096 C74.8946809,102.438583 58.4473404,64.2741167 50.2244681,42.2829167 C42.0015957,20.2900833 36.9111702,1.06166667 36.9111702,1.06166667 L0.745212766,0.297266667 Z"/><path fill="#5B252C" d="M17.987234,100.9743 C17.8005319,100.9743 17.6273936,100.971033 17.4670213,100.9645 L17.5172872,99.65375 C23.750266,99.8995667 52.6763298,94.7284333 67.731383,85.9713167 L68.3648936,87.1113833 C53.2212766,95.9191333 25.3914894,100.9743 17.987234,100.9743 Z"/><path fill="#EA971D" fill-rule="nonzero" d="M19.1880319,106.159317 C18.9941489,106.159317 18.812234,106.15605 18.6446809,106.147883 L18.6949468,104.837133 C20.0018617,104.88695 22.2015957,104.718717 24.9869681,104.3504 L25.1513298,105.6538 C22.637234,105.983733 20.5755319,106.159317 19.1880319,106.159317 Z M31.5231383,104.6493 L31.3021277,103.3557 C33.3319149,102.992283 35.4454787,102.57415 37.5837766,102.116 L37.8462766,103.3998 C35.6944149,103.861217 33.5664894,104.2818 31.5231383,104.6493 Z M44.1255319,101.94695 L43.8239362,100.672133 C45.9223404,100.150283 48.0047872,99.5957667 50.0130319,99.0224667 L50.3577128,100.287483 C48.3343085,100.86405 46.2382979,101.421833 44.1255319,101.94695 Z M56.5276596,98.3928167 L56.1335106,97.1441333 C58.2638298,96.4409833 60.2888298,95.7100667 62.1534574,94.9767 L62.6130319,96.2017 C60.7268617,96.9432333 58.6795213,97.6815 56.5276596,98.3928167 Z M68.5587766,93.5908167 L68.000266,92.4091 C68.7335106,92.0473167 69.4404255,91.6773667 70.1026596,91.3098667 L70.7130319,92.4646333 C70.0332447,92.8411167 69.3079787,93.2192333 68.5587766,93.5908167 Z"/><path fill="#5B252C" d="M36.6797872,97.5287833 C36.3702128,96.4107667 35.2675532,92.7472 33.7428191,87.6765167 C27.306383,66.2708667 12.2305851,16.14795 9.6231383,0.610866667 L10.8861702,0.38955 C13.4808511,15.8425167 28.5390957,65.9099 34.9691489,87.29105 C36.5537234,92.5593667 37.6005319,96.04 37.9125,97.17435 L36.6797872,97.5287833 Z"/></g><g transform="translate(410 417)"><path fill="#EAAEA4" d="M48.8839223,111.250856 C48.3921553,116.575213 42.6589515,148.681186 40.8566214,150.293191 C39.0551068,151.907606 0.558640777,149.971915 0.558640777,147.389654 C0.558640777,144.809 3.17976699,144.809 6.94753398,144.000989 C10.715301,143.194585 28.5061748,138.427644 30.5906796,136.095979 C32.6751845,133.765117 33.0845825,110.367346 32.8374757,110.301484 C32.5911845,110.234016 48.8839223,111.250856 48.8839223,111.250856 Z"/><path fill="#FFF" d="M32.2943301,126.788596 L32.2943301,126.790202 C31.9297864,131.304941 31.380932,135.212468 30.5914951,136.095979 C29.6511845,137.148963 25.5139806,138.6935 20.9119223,140.149686 L22.8382136,142.711064 L31.3556505,147.065968 L42.42,145.800138 C43.4736699,141.69342 44.7687379,135.373106 45.925165,129.204596 C36.6949515,129.419851 34.4130874,127.815074 32.2943301,126.788596 Z"/><path fill="#5B252C" d="M0.559456311,147.389654 C0.559456311,149.971915 39.0559223,151.907606 40.8574369,150.293191 C41.3744854,149.830553 42.2144854,146.861154 43.1605049,142.73516 C40.1144854,142.956037 37.2560388,145.077266 33.3227184,145.077266 C29.3698252,145.077266 25.933165,141.584989 23.4245825,139.329628 C17.3415146,141.392223 9.33460194,143.491766 6.94834951,144.000989 C3.17976699,144.809 0.559456311,144.809 0.559456311,147.389654 Z"/><path fill="url(#n)" d="M35.2881553,0.736526596 C32.6719223,5.69382447 13.8290097,55.2676064 9.07770874,71.7233936 C4.32640777,88.1791809 0.559456311,103.507287 1.54217476,104.797213 C2.5248932,106.087941 11.698835,110.768138 26.605165,113.025106 C41.5123107,115.284484 60.396,117.180819 62.6672621,116.231447 C64.9377087,115.283681 67.9421359,74.7353617 72.3101359,49.997867 C76.6781359,25.2603723 83.8866408,0.951781915 83.8866408,0.951781915 L35.2881553,0.736526596 Z"/><path fill="#5B252C" d="M65.1929709,98.8359255 C35.2212816,98.8359255 10.2406602,89.2337713 4.95518447,85.8876755 L5.6638835,84.8017606 C10.9118447,88.1245638 35.9348738,97.7002128 65.9595728,97.5427872 L65.9669126,98.8319096 C65.7092039,98.8343191 65.4498641,98.8359255 65.1929709,98.8359255 Z"/><g fill="#EA971D" transform="translate(3.224 91.564)"><path d="M3.04544552,2.59671809 C1.71857174,2.05054787 0.696707659,1.55176596 0.0108435814,1.11723936 L0.719542611,0.0329308511 C1.33282416,0.420069149 2.31146494,0.895558511 3.55107659,1.40558511 L3.04544552,2.59671809 Z"/><path fill-rule="nonzero" d="M52.3730183,12.7779734 C50.313795,12.6269734 48.1974844,12.4374202 46.0844358,12.2117234 L46.2255232,10.9282234 C48.3238921,11.1507074 50.4247077,11.3410638 52.4700669,11.4912606 L52.3730183,12.7779734 Z M39.8162416,11.4414628 C37.7496785,11.1563298 35.6513096,10.8326436 33.5790378,10.4832553 L33.8000475,9.211 C35.8592708,9.55958511 37.9445912,9.87925532 39.9997368,10.1635851 L39.8162416,11.4414628 Z M27.3728242,9.33951064 C25.2858727,8.92185106 23.2103387,8.4752766 21.2033096,8.01103191 L21.5034261,6.75484043 C23.4974067,7.21747872 25.5598921,7.66164362 27.6329795,8.07448404 L27.3728242,9.33951064 Z M15.0778339,6.48255851 C12.932164,5.9082766 10.8908824,5.31552128 9.01189213,4.72115957 L9.41150378,3.4914734 C11.2733679,4.08101596 13.2950766,4.66814894 15.4211737,5.23921809 L15.0778339,6.48255851 Z"/><path d="M61.9702222,13.2157128 C60.8725135,13.1972394 59.7756203,13.1683245 58.6803581,13.1265585 L58.7292902,11.8374362 C59.8147659,11.8783989 60.9035038,11.908117 61.9922416,11.924984 L61.9702222,13.2157128 Z"/></g><path fill="#5B252C" d="M29.6903301,93.8312394 L28.3871068,93.6882713 C29.3233398,85.3471277 42.0130485,14.8983989 53.7787573,0.417659574 L54.8022524,1.22406383 C43.4255534,15.2285106 30.5849709,85.860367 29.6903301,93.8312394 Z"/></g><g transform="translate(501 221)"><path fill="#E08C7C" d="M16.0103125,54.1201613 C15.46675,57.2516129 13.2900625,67.4032258 9.8085,71.8306452 C6.32775,76.258871 30.9164375,73.4508065 30.9164375,73.4508065 C30.9164375,73.4508065 30.392375,60.8354839 31.0253125,52.283871 C31.029375,49.675 28.30425,48.1798387 24.334375,48.6943548 C19.9615,49.2604839 16.0103125,54.1201613 16.0103125,54.1201613 Z"/><path fill="#EAAEA4" d="M15.3846875,21.4516129 C13.3859375,23.0306452 11.427,26.2709677 9.59075,29.6322581 C8.2216875,32.1395161 7.592,33.075 4.4500625,35.2209677 C1.989,36.9024194 0.3989375,37.4741935 0.2884375,38.7040323 C0.1795625,39.9185484 3.2264375,41.2959677 3.3085,42.3491935 C3.38975,43.4024194 1.0196875,53.1540323 5.185375,57.008871 C8.0145,59.6282258 17.753125,59.8983871 26.3696875,53.3104839 C34.09575,47.4040323 39.866125,32.8725806 37.0914375,25.5024194 C34.3159375,18.1306452 15.3846875,21.4516129 15.3846875,21.4516129 Z"/><path fill="url(#o)" d="M21.3419375,0.636290323 C23.7355625,1.41935484 24.552125,5.1983871 24.0345625,6.95322581 C23.5031875,8.75645161 22.33075,11.4620968 28.114125,12.7040323 C33.2613125,13.8096774 50.31,17.4830645 51.6969375,33.1959677 C53.3203125,51.5822581 31.46,59.3572581 27.7875,54.5790323 C22.35675,47.5120968 22.3299375,38.5685484 24.3595625,35.3024194 C25.74975,33.0653226 30.706,32.6814516 30.23475,29.6330645 C29.5555,25.2322581 20.115875,25.8862903 13.9140625,22.9 C7.71225,19.9137097 5.672875,14.0008065 6.569875,8.65564516 C7.6139375,2.44193548 14.805375,-1.5016129 21.3419375,0.636290323 Z"/></g><g transform="translate(548 213)"><path fill="url(#p)" d="M15.9268727,42.5291831 C17.2190545,47.4530704 14.9349455,52.662169 10.7623273,53.4790141 C6.33796364,54.3452958 2.37025455,51.1303944 0.893236364,45.7912394 C-0.464181818,40.8818028 0.999454545,35.5464507 5.83363636,34.4337465 C10.4821455,33.3643944 14.6355273,37.6052958 15.9268727,42.5291831 Z"/><path fill="url(#q)" d="M31.3711636,31.5314366 C33.9563636,37.0181408 31.9499273,42.5177746 26.7427273,44.5849859 C20.1145455,47.2157746 14.4682545,43.8928732 11.8822182,38.406169 C9.29618182,32.9194648 11.5309455,25.775493 16.7540364,23.7394648 C21.9779636,21.7041972 28.7851273,26.0447324 31.3711636,31.5314366 Z"/><path fill="url(#r)" d="M39.4905818,19.7168451 C42.6445091,23.2838873 41.7604727,28.6116338 38.1465455,31.2553521 C34.5309455,33.8990704 29.0427273,33.1506761 25.8888,29.5836338 C22.7348727,26.0165915 22.5667636,21.4159437 26.1823636,18.7722254 C29.7962909,16.128507 36.3358182,16.1505634 39.4905818,19.7168451 Z"/><path fill="url(#s)" d="M34.5869818,4.34053521 C35.5948,1.28687324 38.8306909,-0.529352113 41.8156727,0.284450704 C44.8014909,1.09825352 46.4048,4.23329577 45.3986545,7.28771831 C44.3908364,10.3413803 41.1557818,12.1576056 38.1691273,11.3438028 C35.1849818,10.5307606 33.58,7.39495775 34.5869818,4.34053521 Z"/></g><g transform="translate(521 237)"><path fill="url(#t)" d="M20.3992,7.59642 C20.296,10.4247 19.5912,13.1859 18.4,15.73806 C17.2128,18.29412 15.5576,20.64582 13.6176,22.75416 C12.6464,23.80872 11.6032,24.80322 10.5064,25.72986 C9.9568,26.1924 9.3952,26.63856 8.8232,27.0621 C8.5384,27.27348 8.2496,27.47862 7.9624,27.67518 C7.6832,27.8655 7.3672,28.07376 7.1432,28.20324 L10.6168,33.16326 C11.0376,32.8575 11.3464,32.60634 11.6856,32.32632 C12.016,32.05254 12.336,31.77642 12.6504,31.49562 C13.2776,30.93402 13.8808,30.3576 14.4656,29.76402 C15.6328,28.57764 16.7224,27.32496 17.7272,26.00598 C19.7336,23.37036 21.4048,20.45628 22.516,17.3199 C23.6328,14.19054 24.1512,10.8381 23.9544,7.5504 C23.8592,5.8695 23.5792,4.2159 23.152,2.61222 C21.9632,1.85718 20.736,1.20978 19.5184,0.65208 C20.1672,2.9406 20.488,5.28528 20.3992,7.59642 Z"/><ellipse cx="8.881" cy="30.683" fill="#BE4118" rx="8.356" ry="8.147"/><ellipse cx="8.881" cy="30.683" fill="#EA971D" rx="3.705" ry="3.612"/></g><g transform="translate(533 290)"><path fill="url(#u)" d="M34.8861702,50.3966972 C37.2095745,48.3795413 39.7739362,37.9304587 41.4039894,26.293211 C42.4555851,18.7877064 43.1656915,13.703945 44.6098404,10.9238532 C46.0244681,8.20073394 49.793617,5.81697248 51.3135638,4.67669725 C53.3569149,3.14256881 56.4422872,-0.38146789 57.4835106,0.281559633 C58.5255319,0.945412844 57.3231383,4.34477064 56.1207447,5.92100917 C54.9191489,7.49642202 53.2364362,9.81825688 53.2364362,9.81825688 C53.2364362,9.81825688 58.9260638,9.07183486 62.2109043,9.07183486 C65.4965426,9.07183486 74.2428191,8.00752294 74.7119681,10.3161468 C75.0606383,12.0302752 71.1861702,12.6379817 69.743617,13.2184404 C68.3010638,13.7988991 67.0196809,14.0201835 66.7787234,16.8390826 C66.5385638,19.6588073 65.6289894,22.9689908 63.6255319,23.2183486 C61.6220745,23.4677064 51.9534574,22.8377064 51.9534574,22.8377064 C51.9534574,22.8377064 51.9805851,43.3205505 49.95,55.593578 C47.9202128,67.8666055 45.3558511,71.6259633 45.3558511,71.6259633 L34.8861702,50.3966972 Z"/><path fill="url(#v)" d="M30.5585106,50.7013761 C31.0675532,49.9978899 34.6452128,48.5455046 35.4470745,49.1251376 C36.2481383,49.7055963 45.5704787,59.6295413 47.4662234,71.0182569 C49.5143617,83.3210092 47.5476064,89.1511927 45.943883,89.510367 C44.0058511,89.9455046 27.8537234,88.8473394 21.6734043,79.8085321 C15.4930851,70.7697248 30.5585106,50.7013761 30.5585106,50.7013761 Z"/><path fill="url(#w)" d="M8.6018617,23.4181651 C12.1276596,25.5740367 25.5406915,38.0229358 30.3973404,48.4621101 C35.6058511,59.6576147 35.4103723,75.6247706 28.7952128,79.8093578 C21.5832447,84.369633 14.6912234,73.3409174 11.1654255,65.8775229 C7.63962766,58.4141284 2.61781915,50.1762385 0.694946809,46.6934862 C-1.22792553,43.2107339 4.75452128,26.5698165 4.75452128,26.5698165 L8.6018617,23.4181651 Z"/></g><g transform="translate(429 293)"><path fill="url(#x)" d="M74.7770069,3.73354591 C80.660731,0.0865559939 111.787503,-1.75656366 113.027724,2.44632588 C114.008345,5.77131054 107.6868,7.05853057 106.379848,13.0652904 C105.071269,19.0728512 74.7770069,3.73354591 74.7770069,3.73354591 Z"/><path fill="url(#y)" d="M60.2825379,7.27320075 C64.2042069,4.2654153 72.5415172,1.53477865 79.2439172,3.62621083 C85.9463172,5.717643 93.1915172,10.2225126 97.2352552,10.7055205 C101.279807,11.1885284 106.889283,11.448055 106.889283,11.448055 C106.889283,11.448055 117.16749,16.4976101 117.821779,18.7500449 C118.476069,21.0024797 116.177103,33.4253145 108.994566,46.907082 C101.279807,61.3877066 102.1172,67.749313 102.782883,77.3165538 C103.414386,86.3967817 111.772855,113.679118 110.628662,117.862783 C109.485283,122.046449 93.955669,127.837737 59.7918207,128.321546 C25.6279724,128.803753 0.290524138,125.103096 0.290524138,121.885446 C0.290524138,118.667796 11.2669655,85.3787004 13.2542483,83.460286 C14.8395172,81.9287585 15.8201379,83.2696461 16.4736138,82.3853331 C17.1279034,81.5002192 25.4644,63.4791387 32.1659862,52.2161637 C38.8692,40.9547907 55.597531,10.8673241 60.2825379,7.27320075 Z"/><path fill="url(#z)" d="M46.7963586,98.7971883 C51.8915172,97.0013281 53.1992828,88.2607276 51.900469,88.3528435 C44.9710207,88.8486675 21.8698759,85.8448871 16.1847172,82.6344466 C15.5385655,82.9532479 14.6214207,82.1402246 13.2534345,83.460286 C12.3037379,84.3774403 9.30002759,92.4636171 6.42164138,101.00717 C15.3432552,101.197009 41.2275724,100.760459 46.7963586,98.7971883 Z"/><path fill="#BE4118" d="M78.8085379,42.6705501 C80.070731,44.2317149 84.3936,41.1958941 86.0276966,40.5526846 C87.6626069,39.9086741 93.2541793,38.1400482 93.2208138,36.2080167 C93.1793103,33.875481 88.0100966,33.3556268 84.2300276,35.0016984 C79.9795862,36.8512262 77.4869379,41.0348915 78.8085379,42.6705501 Z"/><path fill="url(#A)" d="M117.821779,18.7508459 C117.273283,16.8636708 109.96949,13.0116228 107.616814,11.8141157 C108.449324,13.0660914 109.757903,15.2111911 106.488083,16.6057462 C103.218262,18.0003013 89.7052276,19.9307309 90.4685655,25.1869461 C91.2319034,30.4431613 99.8402069,25.2942812 101.91131,28.0833914 C103.9816,30.8725016 94.0647172,38.0591464 97.9880138,40.8482566 C101.91131,43.6365659 104.744938,34.4121565 108.122993,34.8414968 C110.69051,35.1675071 111.3684,38.5902148 111.594634,41.6276375 C116.731297,30.313398 118.388993,20.7045047 117.821779,18.7508459 Z"/><path fill="url(#B)" d="M102.239269,113.571783 C97.4444,112.606568 93.9564828,116.253558 92.1042897,115.181809 C90.2520966,114.11006 99.0784966,106.707143 94.9371034,103.918834 C90.7965241,101.129724 85.5654621,111.320149 84.4757931,111.212013 C83.3861241,111.103877 88.9435172,97.8047392 89.7068552,93.2990686 C90.4701931,88.793398 91.3417655,78.7103079 86.8740414,77.9597633 C82.4063172,77.2092187 78.1558759,85.3610782 76.1946345,89.1162043 C74.2325793,92.8713303 72.1622897,105.206855 71.0726207,105.635394 C69.9821379,106.063934 69.5467586,89.0080682 69.3286621,86.5425652 C69.1097517,84.0754602 68.6735586,81.2390905 65.6234621,81.1782139 C62.9525931,81.1253474 61.7001655,84.2901304 61.3730207,87.2923088 C61.0466897,90.2960892 63.7696414,113.035908 60.9368276,113.46605 C58.1040138,113.894589 55.1613379,104.026169 52.7639034,105.421525 C50.366469,106.815279 51.892331,112.286165 53.1992828,116.361694 C54.2035034,119.492034 57.1941931,124.864395 58.7778345,128.331158 C59.1163724,128.327954 59.4500276,128.326352 59.7918207,128.321546 C88.4056,127.916236 103.94091,123.78784 108.90749,119.998271 C107.555779,117.531967 105.212055,114.170937 102.239269,113.571783 Z"/><path fill="#EA971D" d="M96.4084414,99.0382917 C98.0417241,99.9226046 100.413117,97.0261593 101.965834,94.6143239 C103.518552,92.2000855 105.153462,88.0981229 103.2736,87.0520064 C101.392924,86.0066908 98.4510621,87.5358153 96.9805379,90.9128654 C95.5083862,94.2915176 94.773531,98.1523767 96.4084414,99.0382917 Z"/></g><g transform="translate(372 220)"><path fill="url(#C)" d="M54.1385031,57.5430894 C50.6683681,54.7666667 23.9140123,26.1243902 24.6419632,22.5138211 C25.3911166,18.799187 25.6840245,15.604878 26.0617423,13.5325203 C26.7488589,9.75609756 29.8082945,4.30569106 29.2955092,3.57073171 C28.5432147,2.49349593 26.6530552,3.5300813 24.8225767,5.26341463 C23.3823804,6.62764228 18.884319,12.4707317 18.884319,12.4707317 C18.884319,12.4707317 15.9662331,11.899187 11.7068957,8.63252033 C7.44834356,5.36666667 3.50547239,0.222764228 1.38601227,0.77398374 C-0.445251534,1.2504065 1.2964908,4.0601626 2.16343558,5.36666667 C3.03116564,6.67317073 3.70493252,8.77154472 3.89968098,9.43902439 C4.40382822,11.1756098 4.49020859,16.3487805 3.584,18.2674797 C3.0688589,19.3577236 2.00638037,19.4918699 1.92785276,20.9617886 C1.8446135,22.5162602 6.97560736,27.6577236 10.208589,28.6373984 C12.7253988,29.4 13.2052025,28.7195122 13.7580368,29.3723577 C14.7137178,30.502439 33.1457178,64.5560976 40.7314847,70.2804878 C48.3164663,76.0056911 54.1385031,57.5430894 54.1385031,57.5430894 Z"/><path fill="#E08C7C" d="M2.8913865,6.67317073 C3.8431411,8.00406504 4.89305521,9.26747967 5.95082209,10.5154472 C6.48245399,11.1373984 7.02193865,11.7520325 7.57320245,12.3504065 C8.1197546,12.9357724 8.69614724,13.5634146 9.26939877,14.0056911 L9.29374233,14.0243902 C9.4751411,14.1642276 9.51283436,14.4308943 9.37776687,14.6186992 C9.24191411,14.8073171 8.98434356,14.8463415 8.80294479,14.7056911 C8.79666258,14.700813 8.78959509,14.695122 8.78409816,14.6894309 C8.09855215,14.0918699 7.60382822,13.4626016 7.06434356,12.8243902 C6.53899387,12.1845528 6.03013497,11.5349593 5.52912883,10.8788618 C4.53418405,9.56178862 3.55258896,8.23658537 2.66287117,6.83495935 C2.62046626,6.76829268 2.63852761,6.6796748 2.70292025,6.63577236 C2.7633865,6.59512195 2.84741104,6.61219512 2.8913865,6.67317073 Z"/><path fill="url(#D)" d="M126.907681,77.1943089 C129.273718,83.6723577 122.071166,96.0829268 105.718577,99.0227642 C87.6470184,102.271545 56.9796319,95.7560976 48.2505031,88.6796748 C39.5213742,81.603252 49.6168834,75.2886179 53.5079264,70.7154472 C57.3989693,66.1430894 62.1506748,57.7430894 68.3449325,60.3650407 C74.5391902,62.9869919 79.3772761,69.8455285 82.3212761,70.498374 C85.2652761,71.1512195 116.185521,71.4333333 120.597988,72.1308943 C124.384589,72.7300813 126.281031,75.4764228 126.907681,77.1943089 Z"/><path fill="url(#E)" d="M69.7262331,61.0308943 C66.048,62.9325203 57.3730552,76.6495935 55.085546,84.7341463 C52.7980368,92.8178862 52.9849325,96.8065041 51.3523436,96.4105691 C47.9874356,95.5943089 29.7800245,84.0284553 30.0839264,77.6300813 C30.3210798,72.6495935 39.153865,68.9747967 45.3057178,63.7487805 C49.2737178,60.3780488 53.3500859,55.4203252 57.0573742,55.501626 C62.4215951,55.6203252 69.7262331,61.0308943 69.7262331,61.0308943 Z"/><path fill="url(#F)" d="M74.2509939,82.3658537 C76.6562945,84.9146341 80.0400491,77.6365854 82.3801718,77.7731707 C85.9272638,77.9788618 85.7387975,85.5788618 89.472,88.9796748 C90.6577669,90.0601626 93.2059877,91.1845528 95.4346012,90.0471545 C97.1535706,89.1691057 98.4107975,87.2105691 97.9380613,84.8146341 C97.4935951,82.5634146 95.5720245,80.5682927 96.4923681,79.1804878 C97.6294479,77.4642276 99.8046626,80.6504065 104.221055,79.3439024 C107.532564,78.3642276 109.02616,74.0341463 107.339387,71.4804878 C97.1512147,71.1764228 84.6810307,70.9170732 82.4508466,70.5227642 C78.8495706,72.8577236 71.4263558,79.3723577 74.2509939,82.3658537 Z"/><path fill="#EA971D" d="M107.874945,83.2365854 C109.374822,81.904878 112.502577,82.9097561 114.079411,85.6317073 C115.656245,88.3536585 116.077153,91.8373984 114.499534,92.9260163 C112.991018,93.9674797 110.082356,92.7414634 108.347681,89.9861789 C107.066896,87.9512195 105.666748,85.196748 107.874945,83.2365854 Z"/></g><g transform="translate(70)"><g transform="translate(489.675 1.598)"><polygon fill="#5C60D5" points="21.535 .341 49.604 24.468 26.751 56.541 .44 30.999"/><polygon fill="#BE4118" points="58.804 56.541 26.751 56.541 49.604 24.468 81.513 24.468"/><polygon fill="#EA971D" points="49.604 24.468 81.513 24.468 54.564 1.8 21.535 .341"/><path fill="#F2D265" d="M58.8044562,56.8653039 C58.722505,56.8653039 58.6413652,56.8346935 58.5772647,56.7742782 L32.1516506,31.3233254 L0.440589181,31.3233254 C0.260458798,31.3233254 0.115218533,31.1783287 0.115218533,30.9994994 C0.115218533,30.8206701 0.261270196,30.6764789 0.440589181,30.6764789 L32.2839085,30.6764789 C32.3682939,30.6764789 32.4502451,30.7095059 32.5102886,30.7675046 L59.0316477,56.3094831 C59.16066,56.4335359 59.1639055,56.6389479 59.0389502,56.7670283 C58.9748498,56.8322769 58.889653,56.8653039 58.8044562,56.8653039 Z"/><path fill="#F2D265" d="M32.2830971,31.3233254 C32.2141283,31.3233254 32.1451594,31.3015759 32.0867388,31.2572713 C31.9431213,31.1493293 31.9147224,30.9463339 32.0242611,30.8037538 L54.3044422,1.60383014 C54.4139809,1.46125003 54.6192647,1.43386176 54.7612593,1.54099823 C54.9048768,1.64894023 54.9332757,1.85193565 54.823737,1.99451576 L32.5427445,31.1944394 C32.4786441,31.2790208 32.3812763,31.3233254 32.2830971,31.3233254 Z"/><path fill="#2421A2" d="M56.9869244,10.085333 L43.2799759,29.2418169 C44.5814585,30.700645 44.7542863,32.9054008 43.5688336,34.5623911 C42.187834,36.4924586 39.4939922,36.9451706 37.5490709,35.574146 C35.604961,34.203927 35.1481439,31.5279319 36.5291435,29.5986699 C37.7113506,27.9473183 39.8534416,27.3818311 41.6652936,28.1100369 L55.3746763,8.94871976 L25.5209052,18.9575214 C25.5209052,18.9575214 27.8496178,26.0228896 27.6938293,30.7763655 C27.5307383,35.7553919 22.7694541,42.2222458 22.7694541,42.2222458 L27.5745538,45.6095304 L28.6180118,46.3465971 L30.2286371,47.4832103 L32.1159491,48.813958 L36.0771948,51.6075616 C36.0771948,51.6075616 40.6599714,45.0158494 45.3417385,43.2219177 C49.8117308,41.5101508 57.2976899,41.3667651 57.2976899,41.3667651 L56.9869244,10.085333 Z"/><path fill="url(#G)" d="M22.7702655,42.2230514 C22.7702655,42.2230514 23.6709174,45.2397888 28.2999437,48.5046317 C32.9305928,51.7694746 36.0780061,51.6075616 36.0780061,51.6075616 C36.0780061,51.6075616 38.5138233,48.1050851 41.6474429,45.5120604 C41.6474429,45.5120604 37.5158036,44.9804057 33.0660963,41.8428377 C28.616389,38.7052697 26.7339454,34.9949647 26.7339454,34.9949647 C25.2985821,38.7858235 22.7702655,42.2230514 22.7702655,42.2230514 Z"/><path fill="#F2D265" fill-rule="nonzero" d="M26.7509847,56.8653039 C26.6665993,56.8653039 26.5846481,56.8322769 26.5237932,56.7726671 L0.212586308,31.2306886 C0.098990571,31.1211355 0.0819512104,30.9463339 0.170393606,30.8166424 L21.2659334,0.157890585 C21.3186743,0.0813645365 21.4014369,0.0314212203 21.4931249,0.0201436973 C21.5856243,0.00725509964 21.6789351,0.0362544445 21.7479039,0.0966697462 L49.8165992,24.2241247 C49.9431773,24.3328722 49.9667078,24.5197569 49.86934,24.6558927 L27.0163119,56.7291681 C26.9611368,56.8064997 26.8751286,56.856443 26.7793837,56.8644984 C26.7704583,56.8644984 26.7599101,56.8653039 26.7509847,56.8653039 Z M0.862516205,30.9576114 L26.7055464,56.0444613 L49.1666693,24.5205624 L21.5986066,0.823264442 L0.862516205,30.9576114 Z"/><path fill="#F2D265" fill-rule="nonzero" d="M58.8044562,56.8653039 L26.7509847,56.8653039 C26.6300864,56.8653039 26.5173021,56.7984443 26.462127,56.6905023 C26.4061405,56.5833658 26.4142545,56.4536743 26.4848461,56.3545932 L49.3378743,24.2813178 C49.3987291,24.1959309 49.4977197,24.1443765 49.6040129,24.1443765 L81.5130555,24.1443765 C81.6347652,24.1443765 81.7459267,24.2112361 81.8019132,24.3191781 C81.8578997,24.4263145 81.8497857,24.5552005 81.7800054,24.6542816 L59.0714062,56.727557 C59.0105513,56.8137495 58.9107493,56.8653039 58.8044562,56.8653039 Z M27.3806297,56.2184574 L58.6356854,56.2184574 L80.8858447,24.7920285 L49.7727837,24.7920285 L27.3806297,56.2184574 Z"/><path fill="#F2D265" fill-rule="nonzero" d="M81.5130555,24.7920285 L49.6040129,24.7920285 C49.5253072,24.7920285 49.4498472,24.7638347 49.3898038,24.7130858 L21.3219199,0.585630922 C21.2164381,0.495410738 21.1807366,0.349608476 21.2326661,0.221528037 C21.2845956,0.0934475968 21.3900773,0.00725509964 21.5507342,0.0185326226 L54.5795062,1.47816631 C54.6517206,1.48138846 54.719878,1.5079712 54.7750531,1.55469236 L81.724019,24.2233191 C81.8286893,24.3103172 81.866825,24.4537028 81.8197639,24.5817832 C81.7718915,24.7074471 81.6501817,24.7920285 81.5130555,24.7920285 Z M49.7249112,24.1443765 L80.6245745,24.1443765 L54.4383229,2.11856851 L22.4578773,0.705655988 L49.7249112,24.1443765 Z"/></g><g transform="translate(0 8)"><polygon fill="url(#H)" points="26.614 23.919 72.474 11 85.614 56.084 39.756 69"/><polygon fill="#5C60D5" points="27.375 24 72.614 11.076 44.661 1 1.614 13.299"/><polygon fill="url(#I)" points="26.558 23.93 .614 13 13.14 57.197 39.614 70"/><path fill="#EA971D" d="M12.9342977 57C12.7959966 57 12.6688231 56.9100788 12.6274917 56.7716161 12.5774172 56.6021187 12.6751818 56.4230721 12.8428918 56.3737348L56.894188 43.3264104 43.5441542.41411373C43.49249.246207811 43.5862804.0655696894 43.7547853.0146408798 43.9224953-.0378794551 44.1029226.055224775 44.1545868.224722219L57.6000007 43.4457748C57.6254354 43.5285341 57.6166922 43.6152722 57.5769505 43.6916654 57.5372088 43.7680587 57.4680582 43.823762 57.3861903 43.8468392L13.0241139 56.9880636C12.9947051 56.9952254 12.9637066 57 12.9342977 57zM85.3011899 56C85.2574869 56 85.2130036 55.9907245 85.1708615 55.9714007L57.7972117 43.5917532C57.6403493 43.5206414 57.5708928 43.3366781 57.6426905 43.1813141 57.7152686 43.0244042 57.9017865 42.9579301 58.0578685 43.0274961L85.4315183 55.4071435C85.5883807 55.4782554 85.6578371 55.6622187 85.5860394 55.8191285 85.533752 55.93198 85.4205926 56 85.3011899 56z"/><g transform="translate(26.614 7)"><path fill="#5B252C" fill-rule="nonzero" d="M49.4761938,41.3399385 L39.7569171,43.8786193 L33.2514133,34.899548 L15.5637297,39.5215125 L14.554255,50.4652745 L5.07680669,52.942287 L10.6778402,4.46146865 L20.1250599,1.99394364 L49.4761938,41.3399385 Z M28.3217719,28.093891 L18.0106519,13.5140676 L16.3512632,31.3939389 L28.3217719,28.093891 Z"/><polygon fill="#93778B" points="20.126 1.993 15.172 .247 5.725 2.714 10.679 4.461"/><polygon fill="#724A5F" points="5.078 52.941 .124 51.195 5.725 2.714 10.679 4.461"/><polygon fill="#724A5F" points="34.804 42.132 39.758 43.879 33.252 34.9 30.151 35.71"/><polygon fill="#724A5F" points="23.471 26.493 17.579 18.154 18.011 13.514 28.322 28.094"/><polygon fill="#93778B" points="16.64 28.277 23.471 26.493 28.322 28.094 16.351 31.394"/></g><path fill="#EA971D" fill-rule="nonzero" d="M39.9320847,70 C39.7939764,70 39.6669167,69.9077044 39.6274572,69.7664519 L26.6271212,23.6314778 C26.6034455,23.5496155 26.6129158,23.4605302 26.6539537,23.3866937 C26.6949916,23.311252 26.762862,23.2566772 26.8441486,23.2334027 L72.2107675,10.0126555 C72.2920541,9.98938099 72.3796543,9.99820926 72.4522598,10.0391404 C72.5256545,10.0816766 72.5801087,10.1506977 72.6029952,10.2333625 L85.6017528,56.3683366 C85.6506826,56.5408893 85.552823,56.7182575 85.3847254,56.7680169 L40.0188957,69.9871589 C39.9904848,69.9951846 39.9604956,70 39.9320847,70 Z M27.3247657,23.7622968 L40.1499013,69.2784889 L84.9064759,56.2367151 L72.0821294,10.7205229 L27.3247657,23.7622968 Z"/><path fill="#EA971D" fill-rule="nonzero" d="M26.824456,24 C26.7825334,24 26.7414018,23.9920323 26.7026431,23.9753 L0.810288314,13.1081124 C0.685311469,13.0571189 0.607003192,12.930432 0.614913119,12.793387 C0.622823046,12.6579356 0.715369191,12.5432003 0.845091993,12.505752 L44.1116013,0.0123505322 C44.1756718,-0.005975248 44.2444881,-0.00438170189 44.3069765,0.0203182627 L72.403828,10.2540713 C72.5335508,10.3010809 72.618187,10.4269711 72.6142321,10.5656096 C72.6086951,10.7042481 72.516149,10.8237641 72.3840532,10.8628059 L26.9130472,23.9880484 C26.8837805,23.9960161 26.8545137,24 26.824456,24 Z M1.89157533,12.8690805 L26.8442308,23.3426622 L71.2640075,10.5209903 L44.1883276,0.657736703 L1.89157533,12.8690805 Z"/><path fill="#EA971D" fill-rule="nonzero" d="M39.3019309,70 C39.2551387,70 39.2091264,69.9904903 39.1662336,69.9690935 L13.1170294,57.3093357 C13.0359229,57.2705045 12.975873,57.1975969 12.9509171,57.1096324 L0.626637935,13.4063255 C0.593103543,13.2890395 0.629757414,13.1614513 0.718662548,13.0814115 C0.808347551,12.9989943 0.935466295,12.9775975 1.04776752,13.0243535 L26.575239,23.8328942 C26.6633642,23.8701404 26.7296531,23.9462178 26.7561687,24.0405221 L39.6021807,69.5950462 C39.6364949,69.7155022 39.5967216,69.8438828 39.5031372,69.9263 C39.4462068,69.9754333 39.3744588,70 39.3019309,70 Z M13.5147629,56.7958131 L38.8090533,69.0902409 L26.1970022,24.3622662 L1.40884714,13.8683373 L13.5147629,56.7958131 Z"/></g><g transform="translate(516.852 170.465)"><polygon fill="url(#J)" points=".911 41.563 30.985 62.851 30.985 25.078 .911 10.02"/><polygon fill="url(#K)" points="59.236 43.332 30.074 62.851 30.074 24.985 59.236 10.931"/><polygon fill="url(#L)" points="30.274 25.505 59.236 11.306 29.925 0 0 10.255"/><path fill="#F2D265" d="M58.976045,43.7227723 C58.9365953,43.7227723 58.8964989,43.7135476 58.8589893,43.6944395 L29.9126006,28.7946797 L0.363472076,41.8475361 C0.229601738,41.9055195 0.0789167679,41.8442416 0.0213589898,41.7104844 C-0.0355520718,41.5760683 0.0252392894,41.4205673 0.156522761,41.3625839 L29.81818,28.2596509 C29.8886721,28.2280236 29.9695117,28.2306592 30.0387104,28.2662399 L59.0937474,43.2220065 C59.2217973,43.2878967 59.2728879,43.4466922 59.208863,43.5778138 C59.1622994,43.6694012 59.0717591,43.7227723 58.976045,43.7227723 Z"/><path fill="#F2D265" d="M30.5300104,29.1485149 C30.3267838,29.1485149 30.1636557,29.0329379 30.1636557,28.8903929 L30.1636557,0.258121926 C30.1636557,0.115576982 30.3276952,0 30.5300104,0 C30.7323257,0 30.8954538,0.115576982 30.8954538,0.258121926 L30.8954538,28.8903929 C30.8963651,29.0329379 30.7323257,29.1485149 30.5300104,29.1485149 Z"/><path fill="#FFF" d="M13.6699507,22.0009844 C13.6699507,31.5668704 21.1707218,36.060027 21.1700749,37.8495967 C21.1700749,37.85742 21.6921208,44.6336634 21.6921208,44.6336634 L29.6094935,44.6336634 L29.6269597,44.6336634 L37.5449793,44.6336634 C37.5449793,44.6336634 38.0670252,37.85742 38.0670252,37.8495967 C38.0657314,36.060027 45.5665025,31.959989 45.5665025,22.0009844 C45.5665025,14.4776202 38.3781827,9.10891089 29.6289004,9.10891089 C20.8796181,9.10825895 13.6699507,14.6614667 13.6699507,22.0009844 Z" opacity=".5"/><path fill="#FFF" fill-rule="nonzero" d="M38.3401893,43.7227723 L21.8082487,43.7227723 L21.7899162,43.4844201 C21.2608941,36.7970678 21.2608941,36.793213 21.2608941,36.7790789 C21.2608941,36.3434919 20.5577137,35.5558376 19.6672805,34.5587417 C17.4241744,32.0454434 13.6699507,27.838624 13.6699507,21.1609085 C13.6699507,13.892131 20.8798411,8.1980198 30.0846947,8.1980198 C39.4303153,8.1980198 46.4778325,13.7707064 46.4778325,21.1609085 C46.4778325,28.1521438 42.6967649,32.238181 40.4372905,34.679524 C39.5710823,35.6149438 38.8875439,36.3531288 38.8881986,36.7790789 C38.8881986,36.793213 38.8881986,36.7970678 38.357867,43.4844201 L38.3401893,43.7227723 Z M22.2960227,43.2062355 L37.8543794,43.2062355 C37.9480059,42.0241115 38.3585218,36.8401125 38.3637596,36.7617325 C38.3624502,36.1546091 39.0335487,35.4299157 40.0490355,34.3325963 C42.2567861,31.9471472 45.9533935,27.9536241 45.9533935,21.161551 C45.9533935,14.0655949 39.1311036,8.71455658 30.0860041,8.71455658 C21.1764339,8.71455658 14.1963539,14.1818799 14.1963539,21.161551 C14.1963539,27.6446015 17.869391,31.7601917 20.0647018,34.2188811 C21.1017946,35.3817313 21.787952,36.1501119 21.7872973,36.7797214 C21.7918804,36.8420399 22.2023963,42.0241115 22.2960227,43.2062355 Z"/><g fill="#FFF" transform="translate(20.96 19.129)"><path fill-rule="nonzero" d="M2.38671255 8.49766096C1.16096046 8.49766096.162640246 7.53236659.162640246 6.34573899.162640246 5.15911139 1.16096046 4.19317733 2.38671255 4.19317733 3.61312579 4.19317733 4.611446 5.15847169 4.611446 6.34573899 4.61210714 7.5317269 3.61378693 8.49766096 2.38671255 8.49766096zM2.38671255 4.9640055C1.59995689 4.9640055.959312996 5.5838665.959312996 6.34573899.959312996 7.10697179 1.59995689 7.72683279 2.38671255 7.72683279 3.17346822 7.72683279 3.81411211 7.10697179 3.81411211 6.34573899 3.81477325 5.5838665 3.17412935 4.9640055 2.38671255 4.9640055zM17.4124234 8.49766096C16.1860102 8.49766096 15.1883511 7.53236659 15.1883511 6.34573899 15.1883511 5.15911139 16.1860102 4.19317733 17.4124234 4.19317733 18.6381755 4.19317733 19.6364957 5.15847169 19.6364957 6.34573899 19.6364957 7.5317269 18.6381755 8.49766096 17.4124234 8.49766096zM17.4124234 4.9640055C16.6256678 4.9640055 15.9850239 5.5838665 15.9850239 6.34573899 15.9850239 7.10697179 16.6256678 7.72683279 17.4124234 7.72683279 18.1991791 7.72683279 18.839823 7.10697179 18.839823 6.34573899 18.839823 5.5838665 18.1991791 4.9640055 17.4124234 4.9640055z"/><polygon points="13.191 24.559 6.375 24.559 2.414 8.152 3.191 7.978 7.006 23.788 12.567 23.788 16.59 7.967 17.364 8.152"/><path d="M16.2931147,4.94993229 C15.2577707,3.31488099 13.2426184,1.3663809 9.52437148,1.3663809 C5.87157734,1.3663809 4.14402058,3.25858815 3.33809188,4.84502289 L2.62340039,4.50534674 C3.36453745,3.04493121 5.24746192,0.595552722 9.52437148,0.595552722 C13.8270655,0.595552722 16.037915,3.07179825 16.9727658,4.54692669 L16.2931147,4.94993229 Z"/></g><path fill="#93778B" d="M23.3204001,46.7202019 L21.8719212,48.7052153 C21.8719212,51.4872667 27.4185679,53.7425743 30.2154249,53.7425743 L30.4481096,53.7425743 C33.2449666,53.7425743 38.2758621,51.4872667 38.2758621,48.7052153 L36.8101472,46.7202019 C36.8101472,43.9381505 23.3204001,43.9381505 23.3204001,46.7202019 Z"/><path fill="url(#M)" d="M39.1871921,40.990099 C39.1871921,40.990099 37.2499763,42.3241745 30.9027847,42.3241745 C24.5542708,42.3241745 21.8719212,40.990099 21.8719212,40.990099 L22.413416,49.6175275 C22.413416,49.6175275 26.0088355,51.009901 30.9027847,51.009901 C35.7960728,51.009901 38.66421,49.6175275 38.66421,49.6175275 L39.1871921,40.990099 Z"/><path fill="#F2D265" fill-rule="nonzero" d="M30.7213445 63.7623762C30.6675188 63.7623762 30.6136931 63.7461019 30.5690571 63.7142042L.111589859 42.2698348C.0413538888 42.2203609 0 42.1409421 0 42.0563155L0 10.2816476C0 10.1911622.0472615872 10.1065357.124718077 10.0590146.202830978 10.0108426.300636207 10.0069367.382031163 10.0479481L30.8394984 25.2162818C30.9287703 25.260548 30.9852217 25.3510333 30.9852217 25.4499813L30.9852217 63.5006849C30.9852217 63.5983309 30.9300832 63.6881653 30.8421241 63.7330824 30.8040523 63.7526116 30.7626984 63.7623762 30.7213445 63.7623762zM.527097979 41.920913L30.4574673 62.9942275 30.4574673 25.6114227.527097979 10.7060823.527097979 41.920913zM31.2446108 63.7623762C31.203315 63.7623762 31.161374 63.7527554 31.1233044 63.7322308 31.0381319 63.6873333 30.9852217 63.600104 30.9852217 63.5045365L30.9852217 26.0138729C30.9852217 25.9157399 31.0413581 25.8259449 31.1310474 25.7823302L59.7748308 11.8679653C59.8548413 11.8288404 59.9496926 11.8333302 60.0258317 11.8807932 60.1019707 11.9276148 60.1477833 12.0109958 60.1477833 12.099508L60.1477833 44.179386C60.1477833 44.2646912 60.105197 44.3448653 60.0342199 44.3929697L31.3904365 63.7181202C31.3465597 63.7476242 31.2962305 63.7623762 31.2446108 63.7623762zM31.5039999 26.174221L31.5039999 63.0177198 59.6290051 44.0427695 59.6290051 12.5119232 31.5039999 26.174221z"/><path fill="#F2D265" fill-rule="nonzero" d="M30.2680118,25.5049505 C30.2272688,25.5049505 30.1871725,25.4959726 30.1509565,25.4773756 L0.143432446,10.5350068 C0.0496589329,10.4888349 -0.00595846092,10.3907197 0.000508677892,10.2874743 C0.00762253059,10.1842289 0.0768209159,10.0950915 0.17576814,10.0611039 L29.8373003,0.0135936986 C29.8955046,-0.00564457731 29.9582358,-0.00436202559 30.0144999,0.0168000779 L59.0694145,11.0941993 C59.1657748,11.1313933 59.2317396,11.2211719 59.2362666,11.3231348 C59.2401469,11.4257389 59.1832361,11.521289 59.0901093,11.5661784 L30.3811867,25.4773756 C30.3462641,25.4959726 30.3068146,25.5049505 30.2680118,25.5049505 Z M0.929836525,10.3503193 L30.2693052,24.959866 L58.3263402,11.3635352 L29.9168461,0.531744595 L0.929836525,10.3503193 Z"/></g><polygon fill="url(#N)" points="524.834 624.876 495.497 619.536 513.272 610.796 538.051 612.534"/></g><g transform="translate(0 639)"><polygon fill="url(#O)" points="193.117 .642 36.924 .642 .328 36.741 226.425 36.741"/><polygon fill="#B5A8AE" points="226.425 36.741 193.117 .642 193.117 36.741"/><polygon fill="url(#P)" points="36.924 .642 .328 36.741 36.978 36.741 36.978 .642"/></g><g transform="translate(66 347)"><polygon fill="url(#Q)" points="179.826 6.144 176.181 .66 171.984 .66 93.539 327.763 109.626 327.763"/><polygon fill="url(#R)" points="108.157 6.135 105.076 .66 100.556 .66 5.001 327.763 23.724 327.763"/><path fill="url(#S)" d="M98.7099107,42.3055528 C97.824375,42.3055528 90.2314286,43.8681867 91.7558036,46.5550467 C93.1716964,49.0484914 95.7744643,51.1494644 96.2927679,51.1494644 L157.956429,51.9287666 L160.264286,42.3055528 L98.7099107,42.3055528 Z"/><path fill="url(#T)" d="M85.5265179,92.0906339 C84.6409821,92.0906339 76.5650893,94.0554103 78.255,96.6407273 C79.8685714,99.1099951 82.7525893,100.932934 83.2700893,100.932934 L145.886786,102.257022 L148.324821,92.0906339 L85.5265179,92.0906339 Z"/><path fill="url(#U)" d="M70.8332143,148.646054 C69.9476786,148.646054 60.8263393,151.905907 62.6986607,154.361474 C64.4199107,156.617179 67.8977679,157.48916 68.4152679,157.48916 L132.316071,158.838231 L134.760536,148.64686 L70.8332143,148.64686 L70.8332143,148.646054 Z"/><path fill="url(#V)" d="M54.1100893,212.354614 C53.2245536,212.354614 43.9384821,216.63312 45.7907143,219.104 C47.2363393,221.032511 51.1746429,221.199332 51.6929464,221.199332 L117.032143,222.578221 L119.483036,212.354614 L54.1100893,212.354614 Z"/><polygon fill="url(#W)" points="105.076 .66 96.036 .66 .481 327.763 16.623 327.763"/><path fill="url(#X)" d="M94.9966071,38.3252285 C94.1110714,38.3252285 91.2551786,39.3060049 90.6758036,42.3418182 C90.1454464,45.1229681 92.0611607,47.1675283 92.5794643,47.1675283 L159.030804,47.4479803 L161.218929,38.3252285 L94.9966071,38.3252285 Z"/><path fill="url(#Y)" d="M81.4700893,88.0812973 C80.58375,88.0812973 77.7286607,89.0636855 77.1484821,92.097887 C76.618125,94.8806486 78.5346429,97.572344 79.0521429,97.572344 L146.743393,98.1437248 L149.155714,88.0812973 L81.4700893,88.0812973 Z"/><path fill="url(#Z)" d="M65.7811607,145.16458 C64.895625,145.16458 62.0397321,146.145356 61.4595536,149.18117 C60.9291964,151.962319 62.8457143,154.977985 63.3632143,154.977985 L133.03125,155.859636 L135.595446,145.16458 L65.7811607,145.16458 Z"/><path fill="url(#aa)" d="M48.7261607,209.430015 C47.840625,209.430015 44.9847321,210.412403 44.4053571,213.446604 C43.8741964,216.229366 45.7907143,219.568197 46.3082143,219.568197 L117.465268,220.768983 L120.184554,209.430015 L48.7261607,209.430015 Z"/><polygon fill="url(#ab)" points="176.181 .66 167.142 .66 88.697 327.763 102.04 327.763"/></g><g transform="translate(25 486)"><path fill="url(#ac)" d="M82.612,23.661954 C86.3088,21.1487701 91.1288,13.8744368 95.0656,10.1829483 C98.2144,7.2311954 104.7936,1.97795402 107.3584,1.07764943 C110.3312,0.0351494253 113.7864,1.03690805 113.7864,1.03690805 C113.7864,1.03690805 116.7592,0.436172414 118.5272,0.957022989 C120.1584,1.43793103 120.616,2.24077586 120.616,2.24077586 C120.616,2.24077586 123.5872,1.76306322 125.2752,2.0802069 C127.184,2.4388908 127.8464,4.32737356 127.6864,6.17112069 C127.5256,8.01726437 119.0888,20.8547931 112.5008,23.983092 C105.9128,27.1113908 97.7976,29.1181034 94.664,32.649023 C91.5304,36.1783448 82.612,23.661954 82.612,23.661954 Z"/><path fill="url(#ad)" d="M0.712,138.393672 C3.0688,130.690356 28.4584,83.8361724 44.528,62.3343103 C60.5976,40.8324483 78.2744,23.5013851 79.3984,23.020477 C80.5232,22.5379713 86.7904,22.5379713 90.4864,25.1062759 C94.1824,27.6729828 96.432,31.2039023 96.2712,32.9685632 C96.1104,34.7348218 83.4272,56.2255 77.6304,71.7998908 C71.8336,87.3758793 53.0448,131.172063 53.0448,131.172063 L0.712,138.393672 Z"/><path fill="#C97165" d="M127.6104 5.81083908C127.5816 5.50328161 127.3616 5.29717816 127.076 5.21329885 126.7928 5.12941954 126.476 5.13341379 126.1696 5.17735057 125.5528 5.26921839 124.9592 5.51606322 124.4184 5.83240805 123.8712 6.14475862 123.4088 6.56894828 122.932 7.00751724L121.5288 8.35118391C120.5928 9.25148851 119.6496 10.1549885 118.632 10.9961782 118.1208 11.413977 117.592 11.8181954 117.0128 12.1776782 116.4272 12.5227816 115.8112 12.8798678 114.9776 12.9389828 114.696 12.9605517 114.4528 12.7488563 114.4312 12.4676609 114.4112 12.1880632 114.6224 11.9436149 114.9032 11.9244425 114.9176 11.9228448 114.9304 11.9212471 114.944 11.9212471L114.9552 11.9228448C115.432 11.9260402 116.0192 11.676 116.5512 11.3876149 117.0936 11.0912414 117.6184 10.7325575 118.132 10.3547011 119.1592 9.59659195 120.1408 8.7538046 121.1192 7.90542529L122.6008 6.63205747C123.0984 6.21825287 123.624 5.78607471 124.2264 5.48331034 124.8208 5.17735057 125.4616 4.94967816 126.1368 4.88417241 126.4728 4.85461494 126.8224 4.86260345 127.1568 4.98402874 127.3232 5.04314368 127.484 5.143 127.6064 5.2835977 127.7264 5.4178046 127.7944 5.62710345 127.8024 5.78447701L127.8032 5.79725862C127.8064 5.84998276 127.7648 5.89551724 127.712 5.89871264 127.6584 5.90190805 127.6144 5.86276437 127.6104 5.81083908zM121.5496 2.23198851C120.4272 2.58587931 119.3824 3.11791379 118.4224 3.76737931 117.9416 4.09171264 117.4824 4.4464023 117.0328 4.81866667 116.5768 5.18853448 116.152 5.58156897 115.628 5.96262069 115.3992 6.12958046 115.0776 6.07925287 114.9112 5.84998276 114.7448 5.62071264 114.7944 5.29957471 115.024 5.13421264 115.0408 5.12143103 115.0568 5.11104598 115.0736 5.10145977L115.0808 5.09826437C115.5496 4.83464368 116.044 4.47755747 116.5448 4.15242529 117.0472 3.82489655 117.5656 3.50935057 118.1016 3.22895402 119.1728 2.66736207 120.3184 2.24157471 121.4904 2.0091092L121.4936 2.0091092C121.556 1.99632759 121.6168 2.03706897 121.6288 2.09937931 121.6392 2.15689655 121.6048 2.21361494 121.5496 2.23198851zM114.7744.992971264C113.7728 1.30931609 112.8856 1.89167816 112.064 2.53954598 111.6536 2.86387931 111.2616 3.21377586 110.8896 3.57885057 110.5304 3.93753448 110.1392 4.34654598 109.9 4.70522989L109.8832 4.72999425C109.7448 4.9392931 109.4632 4.99521264 109.2544 4.85621264 109.0448 4.71881034 108.988 4.43841379 109.1264 4.22911494 109.136 4.21473563 109.1456 4.20115517 109.156 4.18837356 109.5656 3.69867816 109.9664 3.37993678 110.3968 3.02444828 110.824 2.68094253 111.2672 2.363 111.7264 2.06822414 112.6432 1.48506322 113.6344.971402299 114.708.746925287 114.7768.730948276 114.8448.774885057 114.86.843586207 114.8752.907494253 114.8352.971402299 114.7744.992971264z"/></g><g transform="translate(50 513)"><path fill="#5C60D5" fill-rule="nonzero" d="M62.8545862,47.3212632 C58.4925747,47.3212632 54.945023,42.9397895 54.945023,37.5528421 C54.945023,32.1658947 58.4933908,27.7844211 62.8545862,27.7844211 C67.2157816,27.7844211 70.7633333,32.1658947 70.7633333,37.5528421 C70.7633333,42.9397895 67.2149655,47.3212632 62.8545862,47.3212632 Z M62.7721609,29.8989474 C59.8570805,29.8989474 57.5671264,33.6606316 57.5671264,37.5536842 C57.5671264,41.4484211 59.8978851,45.0812632 62.8129655,45.0812632 C65.728046,45.0812632 68.1404138,41.4484211 68.1404138,37.5536842 C68.1404138,33.6606316 65.6864253,29.8989474 62.7721609,29.8989474 Z"/><path fill="url(#ae)" d="M59.6163333,20.1734737 C61.9936092,27.024 65.1902414,53.1587368 58.3056897,67.1983158 C51.9311954,80.1953684 45.0270575,78.6997895 45.0270575,78.6997895 L44.863023,95.6143158 L7.1603908,94.0926316 C7.1603908,94.0926316 15.0307816,80.0530526 16.5046437,70.4117895 C17.9785057,60.7705263 24.2085517,34.0429474 28.4701839,28.4614737 C32.7318161,22.8791579 59.6163333,20.1734737 59.6163333,20.1734737 Z"/><path fill="url(#af)" d="M67.4304138,3.99073684 C69.7456667,7.29010526 69.5163448,15.7229474 64.2615287,20.4564211 C58.2510115,25.8694737 49.2348276,24.4597895 48.2506207,31.9023158 C47.5275632,37.3776842 53.2067471,42.8614737 54.8634138,46.3924211 C56.5029425,49.8871579 56.8301954,54.0597895 54.9727701,55.1882105 C52.9766092,56.3991579 51.1665172,53.7591579 50.6564598,51.9747368 C50.1104943,50.0682105 49.4388506,46.7233684 45.901908,47.0686316 C41.8589885,47.4635789 36.9958966,55.5275789 41.3122069,59.8122105 C43.0741494,61.5604211 46.229977,59.6985263 46.9954713,61.2774737 C48.0237471,63.3978947 43.443023,70.4126316 37.9246092,70.5237895 C33.3038966,70.6172632 33.1716897,67.4231579 27.4884253,67.2538947 C23.2063908,67.1258947 17.1615977,71.6522105 16.5054598,70.4117895 C15.8493218,69.1696842 15.6575402,66.1355789 14.1012529,63.0812632 C12.407046,59.7541053 -2.40094253,47.8576842 0.987471264,28.6863158 C3.41452874,14.9541053 13.3357586,7.51494737 25.1935747,5.28842105 C37.0236437,3.06610526 44.9201494,3.08968421 47.9796782,2.18610526 C51.0375747,1.28505263 62.8407126,-2.54821053 67.4304138,3.99073684 Z"/><path fill="#C97165" d="M45.0360345,78.7115789 L45.2074138,72.8151579 C45.2131264,72.6273684 45.3641034,72.4816842 45.5444598,72.4858947 C45.7264483,72.4926316 45.8684483,72.6484211 45.8635517,72.8362105 C45.8635517,72.8429474 45.8627356,72.8513684 45.8619195,72.8572632 L45.3135057,78.7292632 C45.3061609,78.8101053 45.2376092,78.8673684 45.1617126,78.8589474 C45.0874483,78.8530526 45.0335862,78.7873684 45.0360345,78.7115789 Z"/><path fill="url(#ag)" d="M70.4156782,34.688 C70.0223218,34.0597895 69.2625402,34.2736842 68.6529195,34.6778947 L53.7633218,44.4968421 C54.2072759,45.1747368 54.5908391,45.8096842 54.8634138,46.3915789 C54.9172759,46.5069474 54.9662414,46.6231579 55.0168391,46.7385263 L69.9855977,36.5802105 C70.5927701,36.1751579 70.8082184,35.3162105 70.4156782,34.688 Z"/></g><g transform="translate(25 601)"><path fill="url(#ah)" d="M27.0767265,11.884213 C26.7489803,10.0671411 27.2957688,2.80044942 32.2209525,0.991357606 C38.3778408,-1.27020666 69.5431545,-0.511297834 76,12.4188806 C60.676843,16.2652956 27.0767265,11.884213 27.0767265,11.884213 Z"/><path fill="url(#ai)" d="M15.5975073,75 L99.9898778,75 C101.006195,66.7018237 104.429874,51.9480147 102.332353,39.4801633 C99.9428336,25.2711201 86.4744128,11.3803849 82.9988221,10.7445608 C80.5217033,10.2932287 58.7775645,10.0018424 51.1750648,10.0018424 C40.0783189,10.0018424 23.2429957,9.886238 18.3731132,11.4864875 C9.98221806,14.2435723 1.13304787,24.2560188 0.343030291,26.3313547 C-0.12254475,27.5562858 -0.860651521,38.0073954 3.89080943,52.5323711 C7.11333493,62.3864554 11.7731409,69.9379541 15.5975073,75 Z"/><polygon fill="#BE4118" points="10 63 15.388 55 21 63"/><polygon fill="#BE4118" points="17.013 22 19 31 9 29.331"/><polygon fill="#BE4118" points="70.013 61 72 70 62 68.331"/><polygon fill="#BE4118" points="41 52.788 51 51 49.146 60"/><polygon fill="#BE4118" points="51 27 59 32.388 51 38"/><path fill="#EA971D" d="M34 27L34 23.7271247C35.5032591 23.7271247 36.7270505 22.5052946 36.7270505 21.0000001 36.7270505 19.4963345 35.5032591 18.2728753 34 18.2728753L34 15C37.3087996 15 40 17.6920989 40 20.9991854 40 24.3103448 37.3087996 27 34 27zM60.0634312 15L63.3192313 15.4801983C63.1005948 16.9972262 64.1405511 18.4120664 65.637433 18.6330573 67.1326772 18.8540483 68.5272012 17.7989413 68.7450188 16.2819134L72 16.7637733C71.520965 20.1018992 68.4535035 22.4223037 65.1624923 21.9354591 61.8706623 21.4502761 59.5843962 18.3381259 60.0634312 15zM19.095315 16.1504824C20.9402262 15.0320684 21.9717286 13.0453358 22 11 20.631664 11.1873653 19.503231 11.4110481 18.7035541 11.686731 18.6833603 11.694985 18.6615509 11.7032389 18.6421648 11.7090167 18.4547658 12.3520016 18.0476575 12.9306055 17.4402262 13.2987329 16.6526656 13.7774637 15.7245557 13.7939716 14.947496 13.435749 13.9483037 14.0127021 12.96042 14.6622901 12 15.3622275 13.8820679 17.1582931 16.7722132 17.5610873 19.095315 16.1504824zM4.69317217 52L3.95867067 49.0447852C5.33403817 48.7121341 6.17982778 47.3353071 5.84212594 45.976666 5.5044241 44.6180249 4.1106365 43.7829873 2.73526901 44.1163962L2 41.1611814C5.02703649 40.4284396 8.09398321 42.2637038 8.83615975 45.2515017 9.5798713 48.2408153 7.72097617 51.2687738 4.69317217 52zM24 41L27.2728754 41C27.2728754 42.5038697 28.4963345 43.7274949 30 43.7274949 31.50448 43.7274949 32.7279392 42.5038697 32.7279392 41L36 41C36 44.3083503 33.3087157 47 30.0008146 47 26.6920988 47 24 44.3075357 24 41zM27.7131094 62L29.9733874 64.2610737C28.9351393 65.2993218 28.9351393 66.9883644 29.9733874 68.0258169 31.0124311 69.0656562 32.7022694 69.0656562 33.7397219 68.0274082L36 70.2868906C33.7158542 72.5710365 29.9980508 72.5710365 27.7131094 70.2868906 25.4289635 68.0027448 25.4289635 64.2841459 27.7131094 62zM85.7136038 60L87.973747 62.2610737C86.9355609 63.2993218 86.9355609 64.9883644 87.973747 66.025817 89.0127287 67.0656563 90.7024662 67.0656563 91.7398568 66.0274082L94 68.2868907C91.7159905 70.5710364 87.9984089 70.5710364 85.7136038 68.2868907 83.4287987 66.0027448 83.4287987 62.2841459 85.7136038 60zM68 39L68 42.2724312C66.4967409 42.2724312 65.2729495 43.4957242 65.2729495 44.9991856 65.2729495 46.5042758 66.4967409 47.7275688 68 47.7275688L68 51C64.6912004 51 62 48.3082666 62 45 62 41.690919 64.6920152 39 68 39zM55 75L51.7269025 75C51.7269025 73.4961303 50.5033603 72.2725051 48.9987781 72.2725051 47.4950105 72.2725051 46.2714683 73.4961303 46.2714683 75L43 75C43 71.6916497 45.6922816 69 48.9995927 69 52.308533 69 55 71.6916497 55 75z"/></g><g transform="translate(98 555)"><path fill="url(#aj)" d="M58.9688155,45.7006443 C58.4770485,41.5419799 58.3131262,36.7295906 56.2661359,30.2857315 C54.2183301,23.8426846 52.799301,21.2927517 53.0455922,18.0298121 C55.2043107,18.0663557 58.7241553,18.0517383 58.7241553,18.0517383 C58.6262913,19.0887651 59.4826019,11.4885034 62.5734757,7.69446309 C65.6309126,3.94183893 70.7100583,-0.516483221 73.548932,0.108006711 C74.4696699,0.311026846 73.9852427,3.07047651 73.9852427,3.07047651 C73.9852427,3.07047651 78.4853592,1.61279195 80.3480388,2.06512081 C81.576233,2.36477852 81.576233,3.94183893 81.576233,3.94183893 C81.576233,3.94183893 83.2961942,3.77861074 83.8703301,4.75716779 C84.444466,5.73572483 82.5654757,7.76105369 81.8225243,9.40632886 C80.7965825,11.6777181 80.0544466,13.077745 79.8562718,16.909953 C79.4786796,24.2422282 78.792,29.9600872 77.399068,32.8965705 C76.0069515,35.8322416 75.9245825,40.8890671 75.9245825,43.580302 C75.9245825,46.2715369 58.9688155,45.7006443 58.9688155,45.7006443 Z"/><path fill="#C97165" d="M75.0429903 2.90318792C73.8890097 3.4505302 72.8785631 4.27397987 71.9309126 5.13316107 70.9914175 6.00533557 70.1187961 6.9554698 69.3799223 7.98356376 69.2551456 8.15816107 69.012932 8.19795302 68.8375922 8.0737047 68.6622524 7.94945638 68.6214757 7.70908054 68.7462524 7.53448322 68.7503301 7.52798658 68.7576699 7.51986577 68.7625631 7.51418121 69.6090874 6.48283893 70.5648932 5.56843624 71.5851262 4.73524161 72.6118835 3.91828859 73.6957282 3.14112752 74.9320777 2.64657047 75.0038447 2.61814765 75.0853981 2.65306711 75.1155728 2.7245302 75.1416699 2.79193289 75.1098641 2.86989262 75.0429903 2.90318792zM81.8127379 4.06933557C80.8177864 4.45507383 79.9998058 5.17944966 79.2747961 5.95661074 78.5546796 6.74189262 77.9201942 7.61731544 77.3860194 8.52928188 77.2653204 8.73879866 76.9953786 8.81026174 76.7849709 8.69088591 76.5745631 8.57069799 76.5019806 8.30189933 76.6234951 8.09157047 76.6300194 8.08020134 76.6398058 8.06802013 76.6463301 8.05665101 77.3020194 7.13981208 78.0376311 6.29930872 78.8653981 5.54407383 79.6923495 4.80345638 80.6269515 4.11318792 81.7189515 3.79810067 81.7947961 3.7761745 81.8747184 3.81677852 81.8991845 3.89311409 81.9203883 3.96295302 81.8804272 4.04091275 81.8127379 4.06933557zM58.9843107 17.5287584C58.7673786 18.4569664 58.8016311 19.4241544 58.896233 20.3791611 58.9467961 20.8550403 59.016932 21.3325436 59.1017476 21.8067987 59.1857476 22.2859262 59.2868738 22.7455638 59.3855534 23.242557 59.4304078 23.4691275 59.281165 23.6900134 59.0544466 23.7338658 58.8269126 23.7785302 58.6059029 23.6307315 58.5618641 23.4041611 58.5586019 23.3927919 58.5577864 23.3806107 58.5561553 23.3676174L58.5545243 23.3578725C58.5055922 22.8917383 58.441165 22.3890604 58.4012039 21.8985638 58.3579806 21.4040067 58.3294369 20.9086376 58.3220971 20.4108322 58.3131262 19.420906 58.367767 18.4041812 58.6825631 17.4467383 58.7078447 17.363906 58.7959223 17.3184295 58.8782913 17.343604 58.955767 17.3687785 59.0006214 17.4491745 58.9843107 17.5287584z"/><path fill="url(#ak)" d="M57.3304078,44.4508523 C58.6409709,42.582255 63.4469126,40.1005369 68.1427573,39.9925302 C72.8386019,39.8828993 78.0808544,42.1672819 78.4078835,43.7979396 C78.7349126,45.4302215 88.4560777,110.242369 75.8968544,119.595913 C67.3769709,125.940698 5.17374757,105.028812 1.8528932,97.5203154 C-0.530912621,92.1305369 0.286252427,82.1054027 1.63351456,76.6945101 C3.27273786,70.1150336 6.60745631,61.8521141 12.8821748,60.5446644 C17.1963495,59.6473154 32.0716893,69.2712819 41.5017087,75.0273087 C48.2722718,79.1591745 56.1299417,85.0134631 56.1299417,85.0134631 L57.3304078,44.4508523 Z"/><path fill="#EA971D" d="M79.7339417,53.4633221 C79.5284272,51.7806913 79.3343301,50.2685973 79.1589903,48.9684564 C68.6222913,44.9494698 61.1324272,48.3943154 57.1257087,51.3730268 L56.9650485,56.799349 C58.5471845,54.9145101 66.1699806,47.1567047 79.7339417,53.4633221 Z"/><path fill="url(#al)" d="M73.3841942,106.43696 C75.0633786,106.056094 75.6521942,101.545799 75.6521942,101.545799 C75.6521942,101.545799 61.5067573,88.7652752 56.1291262,85.0142752 C56.1291262,85.0142752 48.2714563,79.1599866 41.5008932,75.0281208 C32.0708738,69.272094 17.195534,59.6481275 12.8813592,60.5454765 C8.87545631,61.3794832 6.06838835,65.0500872 4.13638835,69.3070134 C16.105165,72.2061409 33.1816311,83.2837315 39.0926214,86.5369262 C56.9210097,96.3501074 71.148,106.94451 73.3841942,106.43696 Z"/><path fill="#EA971D" d="M75.6693204,102.824013 C75.6179417,102.824013 75.564932,102.817517 75.5127379,102.805336 C75.1612427,102.720067 74.9467573,102.366 75.0332039,102.016805 C77.0989515,93.6393826 76.7841553,60.5925772 73.1770485,50.4878591 C73.0563495,50.1484094 73.2333204,49.7756644 73.5742136,49.6538523 C73.9134757,49.5352886 74.2902524,49.710698 74.4109515,50.0501477 C78.1664854,60.5674027 78.4551845,93.6077114 76.3046214,102.327832 C76.2320388,102.624242 75.9637282,102.824013 75.6693204,102.824013 Z"/><path fill="#EA971D" d="M73.2284272,107.105302 C71.6471068,107.105302 68.1199223,104.927302 60.2965049,100.002846 C54.3659417,96.2705235 46.9853592,91.627047 38.7770097,87.1078188 C37.6474951,86.4857651 36.107767,85.5786711 34.3241942,84.528651 C26.6532816,80.011047 13.8143301,72.4505772 4.20897087,70.1239664 C3.85666019,70.038698 3.64217476,69.686255 3.72699029,69.3354362 C3.81262136,68.9846174 4.16819417,68.7677919 4.51887379,68.8546846 C14.3126214,71.2292081 27.2575922,78.8505839 34.9904854,83.4055436 C36.7650874,84.4506913 38.2974757,85.3529128 39.4098641,85.9652215 C47.652466,90.5015034 55.0509903,95.1579732 60.996233,98.9000403 C66.7783689,102.538161 72.2448932,105.982195 73.2414757,105.799477 C74.0553786,105.615134 74.8847767,103.147221 75.1693981,101.439416 C75.2281165,101.082913 75.5657476,100.838477 75.923767,100.901819 C76.2809709,100.961913 76.5215534,101.29649 76.4620194,101.653805 C76.3250097,102.478879 75.5363883,106.618054 73.5309903,107.073631 C73.438835,107.093933 73.3385243,107.105302 73.2284272,107.105302 Z"/></g></g></svg>